G75*
%MOIN*%
%OFA0B0*%
%FSLAX25Y25*%
%IPPOS*%
%LPD*%
%AMOC8*
5,1,8,0,0,1.08239X$1,22.5*
%
%ADD10C,0.00000*%
%ADD11C,0.00787*%
%ADD12C,0.06337*%
%ADD13C,0.13455*%
%ADD14C,0.20085*%
%ADD15R,0.06306X0.06306*%
D10*
X0032280Y0021138D02*
X0032286Y0020662D01*
X0032303Y0020187D01*
X0032332Y0019712D01*
X0032372Y0019238D01*
X0032424Y0018765D01*
X0032487Y0018294D01*
X0032561Y0017824D01*
X0032647Y0017356D01*
X0032744Y0016890D01*
X0032852Y0016427D01*
X0032971Y0015967D01*
X0033102Y0015509D01*
X0033243Y0015055D01*
X0033396Y0014604D01*
X0033559Y0014158D01*
X0033733Y0013715D01*
X0033918Y0013277D01*
X0034113Y0012843D01*
X0034319Y0012414D01*
X0034535Y0011990D01*
X0034761Y0011571D01*
X0034997Y0011158D01*
X0035243Y0010751D01*
X0035499Y0010350D01*
X0035765Y0009956D01*
X0036040Y0009567D01*
X0036324Y0009186D01*
X0036617Y0008812D01*
X0036919Y0008444D01*
X0037231Y0008084D01*
X0037550Y0007732D01*
X0037878Y0007388D01*
X0038215Y0007051D01*
X0038559Y0006723D01*
X0038911Y0006404D01*
X0039271Y0006092D01*
X0039639Y0005790D01*
X0040013Y0005497D01*
X0040394Y0005213D01*
X0040783Y0004938D01*
X0041177Y0004672D01*
X0041578Y0004416D01*
X0041985Y0004170D01*
X0042398Y0003934D01*
X0042817Y0003708D01*
X0043241Y0003492D01*
X0043670Y0003286D01*
X0044104Y0003091D01*
X0044542Y0002906D01*
X0044985Y0002732D01*
X0045431Y0002569D01*
X0045882Y0002416D01*
X0046336Y0002275D01*
X0046794Y0002144D01*
X0047254Y0002025D01*
X0047717Y0001917D01*
X0048183Y0001820D01*
X0048651Y0001734D01*
X0049121Y0001660D01*
X0049592Y0001597D01*
X0050065Y0001545D01*
X0050539Y0001505D01*
X0051014Y0001476D01*
X0051489Y0001459D01*
X0051965Y0001453D01*
X0288186Y0001453D02*
X0288662Y0001459D01*
X0289137Y0001476D01*
X0289612Y0001505D01*
X0290086Y0001545D01*
X0290559Y0001597D01*
X0291030Y0001660D01*
X0291500Y0001734D01*
X0291968Y0001820D01*
X0292434Y0001917D01*
X0292897Y0002025D01*
X0293357Y0002144D01*
X0293815Y0002275D01*
X0294269Y0002416D01*
X0294720Y0002569D01*
X0295166Y0002732D01*
X0295609Y0002906D01*
X0296047Y0003091D01*
X0296481Y0003286D01*
X0296910Y0003492D01*
X0297334Y0003708D01*
X0297753Y0003934D01*
X0298166Y0004170D01*
X0298573Y0004416D01*
X0298974Y0004672D01*
X0299368Y0004938D01*
X0299757Y0005213D01*
X0300138Y0005497D01*
X0300512Y0005790D01*
X0300880Y0006092D01*
X0301240Y0006404D01*
X0301592Y0006723D01*
X0301936Y0007051D01*
X0302273Y0007388D01*
X0302601Y0007732D01*
X0302920Y0008084D01*
X0303232Y0008444D01*
X0303534Y0008812D01*
X0303827Y0009186D01*
X0304111Y0009567D01*
X0304386Y0009956D01*
X0304652Y0010350D01*
X0304908Y0010751D01*
X0305154Y0011158D01*
X0305390Y0011571D01*
X0305616Y0011990D01*
X0305832Y0012414D01*
X0306038Y0012843D01*
X0306233Y0013277D01*
X0306418Y0013715D01*
X0306592Y0014158D01*
X0306755Y0014604D01*
X0306908Y0015055D01*
X0307049Y0015509D01*
X0307180Y0015967D01*
X0307299Y0016427D01*
X0307407Y0016890D01*
X0307504Y0017356D01*
X0307590Y0017824D01*
X0307664Y0018294D01*
X0307727Y0018765D01*
X0307779Y0019238D01*
X0307819Y0019712D01*
X0307848Y0020187D01*
X0307865Y0020662D01*
X0307871Y0021138D01*
X0307871Y0217988D02*
X0307865Y0218464D01*
X0307848Y0218939D01*
X0307819Y0219414D01*
X0307779Y0219888D01*
X0307727Y0220361D01*
X0307664Y0220832D01*
X0307590Y0221302D01*
X0307504Y0221770D01*
X0307407Y0222236D01*
X0307299Y0222699D01*
X0307180Y0223159D01*
X0307049Y0223617D01*
X0306908Y0224071D01*
X0306755Y0224522D01*
X0306592Y0224968D01*
X0306418Y0225411D01*
X0306233Y0225849D01*
X0306038Y0226283D01*
X0305832Y0226712D01*
X0305616Y0227136D01*
X0305390Y0227555D01*
X0305154Y0227968D01*
X0304908Y0228375D01*
X0304652Y0228776D01*
X0304386Y0229170D01*
X0304111Y0229559D01*
X0303827Y0229940D01*
X0303534Y0230314D01*
X0303232Y0230682D01*
X0302920Y0231042D01*
X0302601Y0231394D01*
X0302273Y0231738D01*
X0301936Y0232075D01*
X0301592Y0232403D01*
X0301240Y0232722D01*
X0300880Y0233034D01*
X0300512Y0233336D01*
X0300138Y0233629D01*
X0299757Y0233913D01*
X0299368Y0234188D01*
X0298974Y0234454D01*
X0298573Y0234710D01*
X0298166Y0234956D01*
X0297753Y0235192D01*
X0297334Y0235418D01*
X0296910Y0235634D01*
X0296481Y0235840D01*
X0296047Y0236035D01*
X0295609Y0236220D01*
X0295166Y0236394D01*
X0294720Y0236557D01*
X0294269Y0236710D01*
X0293815Y0236851D01*
X0293357Y0236982D01*
X0292897Y0237101D01*
X0292434Y0237209D01*
X0291968Y0237306D01*
X0291500Y0237392D01*
X0291030Y0237466D01*
X0290559Y0237529D01*
X0290086Y0237581D01*
X0289612Y0237621D01*
X0289137Y0237650D01*
X0288662Y0237667D01*
X0288186Y0237673D01*
D11*
X0032280Y0217988D02*
X0032280Y0021138D01*
X0032286Y0020662D01*
X0032303Y0020187D01*
X0032332Y0019712D01*
X0032372Y0019238D01*
X0032424Y0018765D01*
X0032487Y0018294D01*
X0032561Y0017824D01*
X0032647Y0017356D01*
X0032744Y0016890D01*
X0032852Y0016427D01*
X0032971Y0015967D01*
X0033102Y0015509D01*
X0033243Y0015055D01*
X0033396Y0014604D01*
X0033559Y0014158D01*
X0033733Y0013715D01*
X0033918Y0013277D01*
X0034113Y0012843D01*
X0034319Y0012414D01*
X0034535Y0011990D01*
X0034761Y0011571D01*
X0034997Y0011158D01*
X0035243Y0010751D01*
X0035499Y0010350D01*
X0035765Y0009956D01*
X0036040Y0009567D01*
X0036324Y0009186D01*
X0036617Y0008812D01*
X0036919Y0008444D01*
X0037231Y0008084D01*
X0037550Y0007732D01*
X0037878Y0007388D01*
X0038215Y0007051D01*
X0038559Y0006723D01*
X0038911Y0006404D01*
X0039271Y0006092D01*
X0039639Y0005790D01*
X0040013Y0005497D01*
X0040394Y0005213D01*
X0040783Y0004938D01*
X0041177Y0004672D01*
X0041578Y0004416D01*
X0041985Y0004170D01*
X0042398Y0003934D01*
X0042817Y0003708D01*
X0043241Y0003492D01*
X0043670Y0003286D01*
X0044104Y0003091D01*
X0044542Y0002906D01*
X0044985Y0002732D01*
X0045431Y0002569D01*
X0045882Y0002416D01*
X0046336Y0002275D01*
X0046794Y0002144D01*
X0047254Y0002025D01*
X0047717Y0001917D01*
X0048183Y0001820D01*
X0048651Y0001734D01*
X0049121Y0001660D01*
X0049592Y0001597D01*
X0050065Y0001545D01*
X0050539Y0001505D01*
X0051014Y0001476D01*
X0051489Y0001459D01*
X0051965Y0001453D01*
X0288186Y0001453D01*
X0288662Y0001459D01*
X0289137Y0001476D01*
X0289612Y0001505D01*
X0290086Y0001545D01*
X0290559Y0001597D01*
X0291030Y0001660D01*
X0291500Y0001734D01*
X0291968Y0001820D01*
X0292434Y0001917D01*
X0292897Y0002025D01*
X0293357Y0002144D01*
X0293815Y0002275D01*
X0294269Y0002416D01*
X0294720Y0002569D01*
X0295166Y0002732D01*
X0295609Y0002906D01*
X0296047Y0003091D01*
X0296481Y0003286D01*
X0296910Y0003492D01*
X0297334Y0003708D01*
X0297753Y0003934D01*
X0298166Y0004170D01*
X0298573Y0004416D01*
X0298974Y0004672D01*
X0299368Y0004938D01*
X0299757Y0005213D01*
X0300138Y0005497D01*
X0300512Y0005790D01*
X0300880Y0006092D01*
X0301240Y0006404D01*
X0301592Y0006723D01*
X0301936Y0007051D01*
X0302273Y0007388D01*
X0302601Y0007732D01*
X0302920Y0008084D01*
X0303232Y0008444D01*
X0303534Y0008812D01*
X0303827Y0009186D01*
X0304111Y0009567D01*
X0304386Y0009956D01*
X0304652Y0010350D01*
X0304908Y0010751D01*
X0305154Y0011158D01*
X0305390Y0011571D01*
X0305616Y0011990D01*
X0305832Y0012414D01*
X0306038Y0012843D01*
X0306233Y0013277D01*
X0306418Y0013715D01*
X0306592Y0014158D01*
X0306755Y0014604D01*
X0306908Y0015055D01*
X0307049Y0015509D01*
X0307180Y0015967D01*
X0307299Y0016427D01*
X0307407Y0016890D01*
X0307504Y0017356D01*
X0307590Y0017824D01*
X0307664Y0018294D01*
X0307727Y0018765D01*
X0307779Y0019238D01*
X0307819Y0019712D01*
X0307848Y0020187D01*
X0307865Y0020662D01*
X0307871Y0021138D01*
X0307871Y0217988D01*
X0307865Y0218464D01*
X0307848Y0218939D01*
X0307819Y0219414D01*
X0307779Y0219888D01*
X0307727Y0220361D01*
X0307664Y0220832D01*
X0307590Y0221302D01*
X0307504Y0221770D01*
X0307407Y0222236D01*
X0307299Y0222699D01*
X0307180Y0223159D01*
X0307049Y0223617D01*
X0306908Y0224071D01*
X0306755Y0224522D01*
X0306592Y0224968D01*
X0306418Y0225411D01*
X0306233Y0225849D01*
X0306038Y0226283D01*
X0305832Y0226712D01*
X0305616Y0227136D01*
X0305390Y0227555D01*
X0305154Y0227968D01*
X0304908Y0228375D01*
X0304652Y0228776D01*
X0304386Y0229170D01*
X0304111Y0229559D01*
X0303827Y0229940D01*
X0303534Y0230314D01*
X0303232Y0230682D01*
X0302920Y0231042D01*
X0302601Y0231394D01*
X0302273Y0231738D01*
X0301936Y0232075D01*
X0301592Y0232403D01*
X0301240Y0232722D01*
X0300880Y0233034D01*
X0300512Y0233336D01*
X0300138Y0233629D01*
X0299757Y0233913D01*
X0299368Y0234188D01*
X0298974Y0234454D01*
X0298573Y0234710D01*
X0298166Y0234956D01*
X0297753Y0235192D01*
X0297334Y0235418D01*
X0296910Y0235634D01*
X0296481Y0235840D01*
X0296047Y0236035D01*
X0295609Y0236220D01*
X0295166Y0236394D01*
X0294720Y0236557D01*
X0294269Y0236710D01*
X0293815Y0236851D01*
X0293357Y0236982D01*
X0292897Y0237101D01*
X0292434Y0237209D01*
X0291968Y0237306D01*
X0291500Y0237392D01*
X0291030Y0237466D01*
X0290559Y0237529D01*
X0290086Y0237581D01*
X0289612Y0237621D01*
X0289137Y0237650D01*
X0288662Y0237667D01*
X0288186Y0237673D01*
X0051965Y0237673D01*
X0051489Y0237667D01*
X0051014Y0237650D01*
X0050539Y0237621D01*
X0050065Y0237581D01*
X0049592Y0237529D01*
X0049121Y0237466D01*
X0048651Y0237392D01*
X0048183Y0237306D01*
X0047717Y0237209D01*
X0047254Y0237101D01*
X0046794Y0236982D01*
X0046336Y0236851D01*
X0045882Y0236710D01*
X0045431Y0236557D01*
X0044985Y0236394D01*
X0044542Y0236220D01*
X0044104Y0236035D01*
X0043670Y0235840D01*
X0043241Y0235634D01*
X0042817Y0235418D01*
X0042398Y0235192D01*
X0041985Y0234956D01*
X0041578Y0234710D01*
X0041177Y0234454D01*
X0040783Y0234188D01*
X0040394Y0233913D01*
X0040013Y0233629D01*
X0039639Y0233336D01*
X0039271Y0233034D01*
X0038911Y0232722D01*
X0038559Y0232403D01*
X0038215Y0232075D01*
X0037878Y0231738D01*
X0037550Y0231394D01*
X0037231Y0231042D01*
X0036919Y0230682D01*
X0036617Y0230314D01*
X0036324Y0229940D01*
X0036040Y0229559D01*
X0035765Y0229170D01*
X0035499Y0228776D01*
X0035243Y0228375D01*
X0034997Y0227968D01*
X0034761Y0227555D01*
X0034535Y0227136D01*
X0034319Y0226712D01*
X0034113Y0226283D01*
X0033918Y0225849D01*
X0033733Y0225411D01*
X0033559Y0224968D01*
X0033396Y0224522D01*
X0033243Y0224071D01*
X0033102Y0223617D01*
X0032971Y0223159D01*
X0032852Y0222699D01*
X0032744Y0222236D01*
X0032647Y0221770D01*
X0032561Y0221302D01*
X0032487Y0220832D01*
X0032424Y0220361D01*
X0032372Y0219888D01*
X0032332Y0219414D01*
X0032303Y0218939D01*
X0032286Y0218464D01*
X0032280Y0217988D01*
D12*
X0045562Y0200203D02*
X0051499Y0200203D01*
X0051499Y0190203D02*
X0045562Y0190203D01*
X0045562Y0180203D02*
X0051499Y0180203D01*
X0051499Y0170203D02*
X0045562Y0170203D01*
X0045562Y0160203D02*
X0051499Y0160203D01*
X0051499Y0150203D02*
X0045562Y0150203D01*
X0045562Y0140203D02*
X0051499Y0140203D01*
X0051499Y0130203D02*
X0045562Y0130203D01*
X0045562Y0120203D02*
X0051499Y0120203D01*
X0051499Y0110203D02*
X0045562Y0110203D01*
X0045562Y0100203D02*
X0051499Y0100203D01*
X0051499Y0080203D02*
X0045562Y0080203D01*
X0045562Y0070203D02*
X0051499Y0070203D01*
X0051499Y0060203D02*
X0045562Y0060203D01*
X0045562Y0050203D02*
X0051499Y0050203D01*
X0051499Y0040203D02*
X0045562Y0040203D01*
X0076030Y0019421D02*
X0076030Y0013484D01*
X0086030Y0013484D02*
X0086030Y0019421D01*
X0096030Y0019421D02*
X0096030Y0013484D01*
X0106030Y0013484D02*
X0106030Y0019421D01*
X0116030Y0019421D02*
X0116030Y0013484D01*
X0126030Y0013484D02*
X0126030Y0019421D01*
X0136030Y0019421D02*
X0136030Y0013484D01*
X0146030Y0013484D02*
X0146030Y0019421D01*
X0156030Y0019421D02*
X0156030Y0013484D01*
X0166030Y0013484D02*
X0166030Y0019421D01*
X0176030Y0019421D02*
X0176030Y0013484D01*
X0186030Y0013484D02*
X0186030Y0019421D01*
X0289312Y0048953D02*
X0295249Y0048953D01*
X0295249Y0058953D02*
X0289312Y0058953D01*
X0289312Y0068953D02*
X0295249Y0068953D01*
X0295249Y0078953D02*
X0289312Y0078953D01*
X0289312Y0171453D02*
X0295249Y0171453D01*
X0295249Y0181453D02*
X0289312Y0181453D01*
X0289312Y0191453D02*
X0295249Y0191453D01*
X0295249Y0201453D02*
X0289312Y0201453D01*
X0257280Y0218484D02*
X0257280Y0224421D01*
X0247280Y0224421D02*
X0247280Y0218484D01*
X0237280Y0218484D02*
X0237280Y0224421D01*
X0227280Y0224421D02*
X0227280Y0218484D01*
X0217280Y0218484D02*
X0217280Y0224421D01*
X0207280Y0224421D02*
X0207280Y0218484D01*
X0197280Y0218484D02*
X0197280Y0224421D01*
X0187280Y0224421D02*
X0187280Y0218484D01*
D13*
X0223579Y0041453D03*
X0270981Y0041453D03*
D14*
X0292123Y0017201D03*
X0292123Y0221925D03*
X0048028Y0221925D03*
X0048028Y0017201D03*
D15*
X0092280Y0132703D03*
X0143530Y0141453D03*
X0209780Y0031453D03*
X0209780Y0021453D03*
X0209780Y0011453D03*
M02*
