%
M48
M72
T01C0.0157
T02C0.0236
T03C0.0394
T04C0.0906
T05C0.1260
%
T01
X7103Y18520
X7478Y18520
X7853Y16020
X8353Y15395
X10603Y17645
X10603Y18020
X12103Y19395
X13728Y19395
X13478Y17270
X16603Y16770
X20853Y17895
X21978Y17895
X22853Y16770
X23603Y15770
X22353Y15270
X22353Y14895
X20853Y14895
X20853Y15270
X20853Y14520
X18978Y12145
X18978Y11645
X18228Y12895
X23978Y11020
X24353Y11520
X25603Y14020
X27853Y11270
X27853Y9770
X16728Y3145
X11978Y4520
X10353Y4645
X10353Y5020
X10103Y2770
X9103Y2770
X5478Y6520
X6228Y6520
X11853Y7645
X12228Y7270
X12728Y7770
X12353Y8145
X21228Y19645
X24103Y20145
X26103Y17770
T02
X6978Y21270
X6978Y20770
X7853Y18895
X8603Y18895
X9228Y19895
X9228Y20395
X11228Y21645
X11978Y21645
X11603Y18895
X11728Y18145
X11728Y17645
X13478Y18645
X15478Y18645
X16603Y18645
X18603Y17270
X19353Y16395
X19978Y17145
X20603Y15895
X19353Y15270
X20853Y14020
X20853Y13645
X20853Y13145
X17978Y12020
X16478Y11270
X15478Y11270
X14603Y10395
X15478Y10020
X16353Y9395
X16853Y9520
X18103Y9895
X19478Y8770
X20103Y8770
X20728Y8770
X21603Y8145
X21603Y7645
X22103Y7895
X22103Y8395
X23603Y9395
X24978Y9020
X25978Y9020
X27228Y8770
X26478Y10520
X25728Y10520
X24353Y12020
X27853Y13020
X28478Y13645
X27728Y14395
X26353Y15895
X25353Y16520
X24853Y16520
X23603Y17145
X22353Y18645
X25103Y18645
X27353Y20020
X27978Y20020
X19353Y18645
X17103Y16020
X15478Y16020
X14353Y15270
X13728Y15270
X13103Y13895
X13853Y12895
X12103Y12520
X12103Y12020
X13728Y10770
X10603Y8645
X10103Y8645
X8853Y10020
X8353Y10020
X7353Y10270
X6853Y10020
X6853Y10520
X9603Y11770
X9603Y12145
X7103Y13395
X6478Y14270
X6603Y15145
X6603Y16520
X7853Y17020
X8228Y17020
X9353Y17770
X9103Y15145
X14478Y7770
X13853Y6395
X13353Y5145
X13228Y3895
X13978Y3895
X16103Y4645
X15603Y5770
X15603Y6270
X18228Y6270
X18728Y6270
X19228Y6270
X19228Y5770
X19228Y5270
X19228Y4770
X19228Y4270
X18728Y4270
X18228Y4270
X17478Y4145
X19853Y4270
X19853Y4770
X19853Y5270
X19853Y5770
X19853Y6270
X21603Y6145
X21603Y5270
X18103Y7770
X20353Y10395
X25103Y15270
X29228Y9270
X11103Y3270
X10978Y3770
X9603Y6395
X9103Y6395
X7103Y3520
T03
X4853Y20020
X4853Y19020
X4853Y18020
X4853Y17020
X4853Y16020
X4853Y15020
X4853Y14020
X4853Y13020
X4853Y12020
X4853Y11020
X4853Y10020
X4853Y8020
X4853Y7020
X4853Y6020
X4853Y5020
X4853Y4020
X7603Y1645
X8603Y1645
X9603Y1645
X10603Y1645
X11603Y1645
X12603Y1645
X13603Y1645
X14603Y1645
X15603Y1645
X16603Y1645
X17603Y1645
X18603Y1645
X20978Y1145
X20978Y2145
X20978Y3145
X24236Y5212
X24236Y6000
X25220Y6000
X25220Y5212
X29228Y4895
X29228Y5895
X29228Y6895
X29228Y7895
X29228Y17145
X29228Y18145
X29228Y19145
X29228Y20145
X25728Y22145
X24728Y22145
X23728Y22145
X22728Y22145
X21728Y22145
X20728Y22145
X19728Y22145
X18728Y22145
X14353Y14145
X9228Y13270
T04
X22358Y4145
X27098Y4145
T05
X4803Y1720
X29212Y1720
X29212Y22193
X4803Y22193
M30
