G75*
%MOIN*%
%OFA0B0*%
%FSLAX25Y25*%
%IPPOS*%
%LPD*%
%AMOC8*
5,1,8,0,0,1.08239X$1,22.5*
%
%ADD10C,0.00700*%
%ADD11C,0.00591*%
%ADD12C,0.00600*%
D10*
X0057630Y0038053D02*
X0057630Y0042356D01*
X0059065Y0040922D01*
X0060499Y0042356D01*
X0060499Y0038053D01*
X0062234Y0038770D02*
X0062234Y0041639D01*
X0062951Y0042356D01*
X0064386Y0042356D01*
X0065103Y0041639D01*
X0066838Y0042356D02*
X0066838Y0038053D01*
X0069707Y0038053D01*
X0071442Y0038053D02*
X0071442Y0042356D01*
X0073594Y0042356D01*
X0074311Y0041639D01*
X0074311Y0040205D01*
X0073594Y0039487D01*
X0071442Y0039487D01*
X0072877Y0039487D02*
X0074311Y0038053D01*
X0074594Y0037630D02*
X0073877Y0036912D01*
X0073877Y0034761D01*
X0078180Y0034761D01*
X0078180Y0036912D01*
X0077463Y0037630D01*
X0074594Y0037630D01*
X0073877Y0033026D02*
X0078180Y0033026D01*
X0073877Y0030157D01*
X0078180Y0030157D01*
X0077463Y0028422D02*
X0076028Y0028422D01*
X0076028Y0026987D01*
X0074594Y0025553D02*
X0077463Y0025553D01*
X0078180Y0026270D01*
X0078180Y0027705D01*
X0077463Y0028422D01*
X0074594Y0028422D02*
X0073877Y0027705D01*
X0073877Y0026270D01*
X0074594Y0025553D01*
X0083877Y0026270D02*
X0084594Y0025553D01*
X0087463Y0025553D01*
X0088180Y0026270D01*
X0088180Y0027705D01*
X0087463Y0028422D01*
X0084594Y0028422D02*
X0083877Y0027705D01*
X0083877Y0026270D01*
X0093877Y0025553D02*
X0093877Y0027705D01*
X0094594Y0028422D01*
X0097463Y0028422D01*
X0098180Y0027705D01*
X0098180Y0025553D01*
X0093877Y0025553D01*
X0103877Y0025553D02*
X0103877Y0027705D01*
X0104594Y0028422D01*
X0106028Y0028422D01*
X0106746Y0027705D01*
X0106746Y0025553D01*
X0108180Y0025553D02*
X0103877Y0025553D01*
X0106746Y0026987D02*
X0108180Y0028422D01*
X0107463Y0030157D02*
X0106028Y0030157D01*
X0105311Y0030874D01*
X0105311Y0032309D01*
X0106028Y0033026D01*
X0106746Y0033026D01*
X0106746Y0030157D01*
X0107463Y0030157D02*
X0108180Y0030874D01*
X0108180Y0032309D01*
X0106028Y0034761D02*
X0106028Y0036195D01*
X0104594Y0035478D02*
X0108180Y0035478D01*
X0104594Y0035478D02*
X0103877Y0036195D01*
X0113877Y0035478D02*
X0114594Y0034761D01*
X0113877Y0035478D02*
X0113877Y0036912D01*
X0114594Y0037630D01*
X0115311Y0037630D01*
X0116028Y0036912D01*
X0116746Y0037630D01*
X0117463Y0037630D01*
X0118180Y0036912D01*
X0118180Y0035478D01*
X0117463Y0034761D01*
X0116746Y0033026D02*
X0113877Y0033026D01*
X0116746Y0033026D02*
X0118180Y0031591D01*
X0116746Y0030157D01*
X0113877Y0030157D01*
X0114594Y0028422D02*
X0115311Y0028422D01*
X0116028Y0027705D01*
X0116746Y0028422D01*
X0117463Y0028422D01*
X0118180Y0027705D01*
X0118180Y0026270D01*
X0117463Y0025553D01*
X0116028Y0026987D02*
X0116028Y0027705D01*
X0114594Y0028422D02*
X0113877Y0027705D01*
X0113877Y0026270D01*
X0114594Y0025553D01*
X0123877Y0025553D02*
X0123877Y0027705D01*
X0124594Y0028422D01*
X0126028Y0028422D01*
X0126746Y0027705D01*
X0126746Y0025553D01*
X0128180Y0025553D02*
X0123877Y0025553D01*
X0126746Y0026987D02*
X0128180Y0028422D01*
X0128180Y0030157D02*
X0128180Y0032309D01*
X0127463Y0033026D01*
X0124594Y0033026D01*
X0123877Y0032309D01*
X0123877Y0030157D01*
X0128180Y0030157D01*
X0124594Y0034761D02*
X0126028Y0036195D01*
X0128180Y0036195D01*
X0126028Y0036195D02*
X0124594Y0037630D01*
X0123877Y0037630D01*
X0123877Y0034761D02*
X0124594Y0034761D01*
X0116028Y0036195D02*
X0116028Y0036912D01*
X0133877Y0036912D02*
X0133877Y0034761D01*
X0138180Y0034761D01*
X0138180Y0036912D01*
X0137463Y0037630D01*
X0134594Y0037630D01*
X0133877Y0036912D01*
X0133877Y0033026D02*
X0138180Y0033026D01*
X0133877Y0030157D01*
X0138180Y0030157D01*
X0137463Y0028422D02*
X0136028Y0028422D01*
X0136028Y0026987D01*
X0134594Y0025553D02*
X0137463Y0025553D01*
X0138180Y0026270D01*
X0138180Y0027705D01*
X0137463Y0028422D01*
X0134594Y0028422D02*
X0133877Y0027705D01*
X0133877Y0026270D01*
X0134594Y0025553D01*
X0143877Y0025553D02*
X0145311Y0026987D01*
X0143877Y0028422D01*
X0148180Y0028422D01*
X0148180Y0030157D02*
X0148180Y0031591D01*
X0148180Y0030874D02*
X0143877Y0030874D01*
X0143877Y0030157D02*
X0143877Y0031591D01*
X0144594Y0033226D02*
X0145311Y0033226D01*
X0146028Y0033943D01*
X0146028Y0035378D01*
X0146746Y0036095D01*
X0147463Y0036095D01*
X0148180Y0035378D01*
X0148180Y0033943D01*
X0147463Y0033226D01*
X0144594Y0033226D02*
X0143877Y0033943D01*
X0143877Y0035378D01*
X0144594Y0036095D01*
X0144594Y0037830D02*
X0147463Y0037830D01*
X0148180Y0038547D01*
X0148180Y0039982D01*
X0147463Y0040699D01*
X0144594Y0040699D01*
X0143877Y0039982D01*
X0143877Y0038547D01*
X0144594Y0037830D01*
X0153877Y0036912D02*
X0153877Y0035478D01*
X0154594Y0034761D01*
X0155311Y0034761D01*
X0156028Y0035478D01*
X0156028Y0036912D01*
X0156746Y0037630D01*
X0157463Y0037630D01*
X0158180Y0036912D01*
X0158180Y0035478D01*
X0157463Y0034761D01*
X0157463Y0033026D02*
X0154594Y0033026D01*
X0153877Y0032309D01*
X0153877Y0030874D01*
X0154594Y0030157D01*
X0157463Y0030157D01*
X0158180Y0030874D01*
X0158180Y0032309D01*
X0157463Y0033026D01*
X0153877Y0036912D02*
X0154594Y0037630D01*
X0153877Y0039365D02*
X0153877Y0040799D01*
X0153877Y0040082D02*
X0158180Y0040082D01*
X0158180Y0039365D02*
X0158180Y0040799D01*
X0163877Y0039365D02*
X0168180Y0039365D01*
X0166746Y0039365D02*
X0163877Y0042234D01*
X0166028Y0040082D02*
X0168180Y0042234D01*
X0168180Y0037630D02*
X0168180Y0034761D01*
X0163877Y0034761D01*
X0164594Y0033026D02*
X0163877Y0032309D01*
X0163877Y0030874D01*
X0164594Y0030157D01*
X0167463Y0030157D01*
X0168180Y0030874D01*
X0168180Y0032309D01*
X0167463Y0033026D01*
X0172480Y0034411D02*
X0172480Y0025203D01*
X0173877Y0026270D02*
X0173877Y0027705D01*
X0174594Y0028422D01*
X0176028Y0027705D02*
X0176746Y0028422D01*
X0177463Y0028422D01*
X0178180Y0027705D01*
X0178180Y0026270D01*
X0177463Y0025553D01*
X0176028Y0026270D02*
X0176028Y0027705D01*
X0176028Y0026270D02*
X0175311Y0025553D01*
X0174594Y0025553D01*
X0173877Y0026270D01*
X0174594Y0030157D02*
X0175311Y0030157D01*
X0176028Y0030874D01*
X0176028Y0032309D01*
X0176746Y0033026D01*
X0177463Y0033026D01*
X0178180Y0032309D01*
X0178180Y0030874D01*
X0177463Y0030157D01*
X0174594Y0030157D02*
X0173877Y0030874D01*
X0173877Y0032309D01*
X0174594Y0033026D01*
X0168180Y0027705D02*
X0168180Y0026270D01*
X0167463Y0025553D01*
X0166028Y0026270D02*
X0166028Y0027705D01*
X0166746Y0028422D01*
X0167463Y0028422D01*
X0168180Y0027705D01*
X0166028Y0026270D02*
X0165311Y0025553D01*
X0164594Y0025553D01*
X0163877Y0026270D01*
X0163877Y0027705D01*
X0164594Y0028422D01*
X0158180Y0028422D02*
X0153877Y0028422D01*
X0155311Y0026987D01*
X0153877Y0025553D01*
X0158180Y0025553D01*
X0148180Y0025553D02*
X0143877Y0025553D01*
X0155959Y0007356D02*
X0155242Y0006639D01*
X0155242Y0005922D01*
X0155959Y0005205D01*
X0157393Y0005205D01*
X0158111Y0004487D01*
X0158111Y0003770D01*
X0157393Y0003053D01*
X0155959Y0003053D01*
X0155242Y0003770D01*
X0155959Y0007356D02*
X0157393Y0007356D01*
X0158111Y0006639D01*
X0159846Y0007356D02*
X0161997Y0007356D01*
X0162715Y0006639D01*
X0162715Y0005205D01*
X0161997Y0004487D01*
X0159846Y0004487D01*
X0159846Y0003053D02*
X0159846Y0007356D01*
X0164449Y0007356D02*
X0165884Y0007356D01*
X0165167Y0007356D02*
X0165167Y0003053D01*
X0165884Y0003053D02*
X0164449Y0003053D01*
X0184594Y0025553D02*
X0187463Y0025553D01*
X0188180Y0026270D01*
X0188180Y0027705D01*
X0187463Y0028422D01*
X0186028Y0028422D01*
X0186028Y0026987D01*
X0184594Y0025553D02*
X0183877Y0026270D01*
X0183877Y0027705D01*
X0184594Y0028422D01*
X0183877Y0030157D02*
X0188180Y0033026D01*
X0183877Y0033026D01*
X0183877Y0034761D02*
X0183877Y0036912D01*
X0184594Y0037630D01*
X0187463Y0037630D01*
X0188180Y0036912D01*
X0188180Y0034761D01*
X0183877Y0034761D01*
X0183877Y0030157D02*
X0188180Y0030157D01*
X0202094Y0032185D02*
X0204963Y0032185D01*
X0203528Y0030751D02*
X0203528Y0033620D01*
X0203528Y0022370D02*
X0203528Y0019501D01*
X0203528Y0012370D02*
X0204963Y0012370D01*
X0205680Y0011653D01*
X0205680Y0010218D01*
X0204963Y0009501D01*
X0203528Y0009501D02*
X0202811Y0010935D01*
X0202811Y0011653D01*
X0203528Y0012370D01*
X0201377Y0012370D02*
X0201377Y0009501D01*
X0203528Y0009501D01*
X0215127Y0014897D02*
X0218713Y0014897D01*
X0219430Y0015614D01*
X0219430Y0017049D01*
X0218713Y0017766D01*
X0215127Y0017766D01*
X0215844Y0019501D02*
X0216561Y0019501D01*
X0217278Y0020218D01*
X0217278Y0021653D01*
X0217996Y0022370D01*
X0218713Y0022370D01*
X0219430Y0021653D01*
X0219430Y0020218D01*
X0218713Y0019501D01*
X0215844Y0019501D02*
X0215127Y0020218D01*
X0215127Y0021653D01*
X0215844Y0022370D01*
X0215127Y0024105D02*
X0215127Y0026257D01*
X0215844Y0026974D01*
X0216561Y0026974D01*
X0217278Y0026257D01*
X0217278Y0024105D01*
X0215127Y0024105D02*
X0219430Y0024105D01*
X0219430Y0026257D01*
X0218713Y0026974D01*
X0217996Y0026974D01*
X0217278Y0026257D01*
X0238422Y0040020D02*
X0238422Y0042889D01*
X0239140Y0043606D01*
X0240574Y0043606D01*
X0241291Y0042889D01*
X0243026Y0042889D02*
X0243026Y0040020D01*
X0243744Y0039303D01*
X0245178Y0039303D01*
X0245895Y0040020D01*
X0245895Y0042889D01*
X0245178Y0043606D01*
X0243744Y0043606D01*
X0243026Y0042889D01*
X0241291Y0040020D02*
X0240574Y0039303D01*
X0239140Y0039303D01*
X0238422Y0040020D01*
X0247630Y0039303D02*
X0247630Y0043606D01*
X0250499Y0039303D01*
X0250499Y0043606D01*
X0252234Y0041455D02*
X0255103Y0041455D01*
X0254386Y0043606D02*
X0254386Y0039303D01*
X0252234Y0041455D02*
X0254386Y0043606D01*
X0271974Y0047520D02*
X0272692Y0046803D01*
X0274126Y0046803D01*
X0274843Y0047520D01*
X0274843Y0048955D01*
X0273409Y0048955D01*
X0274843Y0050389D02*
X0274126Y0051106D01*
X0272692Y0051106D01*
X0271974Y0050389D01*
X0271974Y0047520D01*
X0276578Y0046803D02*
X0276578Y0051106D01*
X0279447Y0046803D01*
X0279447Y0051106D01*
X0281182Y0051106D02*
X0283334Y0051106D01*
X0284051Y0050389D01*
X0284051Y0047520D01*
X0283334Y0046803D01*
X0281182Y0046803D01*
X0281182Y0051106D01*
X0282617Y0056803D02*
X0281182Y0058237D01*
X0281182Y0061106D01*
X0279447Y0060389D02*
X0278730Y0061106D01*
X0277295Y0061106D01*
X0276578Y0060389D01*
X0279447Y0060389D02*
X0279447Y0059672D01*
X0276578Y0056803D01*
X0279447Y0056803D01*
X0282617Y0056803D02*
X0284051Y0058237D01*
X0284051Y0061106D01*
X0283136Y0066803D02*
X0281701Y0066803D01*
X0280984Y0067520D01*
X0279249Y0068237D02*
X0279249Y0071106D01*
X0280984Y0070389D02*
X0281701Y0071106D01*
X0283136Y0071106D01*
X0283853Y0070389D01*
X0283853Y0069672D01*
X0283136Y0068955D01*
X0283853Y0068237D01*
X0283853Y0067520D01*
X0283136Y0066803D01*
X0283136Y0068955D02*
X0282419Y0068955D01*
X0279249Y0068237D02*
X0277815Y0066803D01*
X0276380Y0068237D01*
X0276380Y0071106D01*
X0274645Y0070389D02*
X0274645Y0069672D01*
X0273928Y0068955D01*
X0274645Y0068237D01*
X0274645Y0067520D01*
X0273928Y0066803D01*
X0272494Y0066803D01*
X0271776Y0067520D01*
X0273211Y0068955D02*
X0273928Y0068955D01*
X0274645Y0070389D02*
X0273928Y0071106D01*
X0272494Y0071106D01*
X0271776Y0070389D01*
X0270041Y0068955D02*
X0267172Y0068955D01*
X0268607Y0070389D02*
X0268607Y0067520D01*
X0273409Y0061106D02*
X0271974Y0059672D01*
X0273409Y0061106D02*
X0273409Y0056803D01*
X0274843Y0056803D02*
X0271974Y0056803D01*
X0272494Y0076803D02*
X0271776Y0077520D01*
X0272494Y0076803D02*
X0273928Y0076803D01*
X0274645Y0077520D01*
X0274645Y0078237D01*
X0273928Y0078955D01*
X0273211Y0078955D01*
X0273928Y0078955D02*
X0274645Y0079672D01*
X0274645Y0080389D01*
X0273928Y0081106D01*
X0272494Y0081106D01*
X0271776Y0080389D01*
X0270041Y0078955D02*
X0267172Y0078955D01*
X0276380Y0078237D02*
X0277815Y0076803D01*
X0279249Y0078237D01*
X0279249Y0081106D01*
X0280984Y0080389D02*
X0281701Y0081106D01*
X0283136Y0081106D01*
X0283853Y0080389D01*
X0283853Y0079672D01*
X0283136Y0078955D01*
X0283853Y0078237D01*
X0283853Y0077520D01*
X0283136Y0076803D01*
X0281701Y0076803D01*
X0280984Y0077520D01*
X0282419Y0078955D02*
X0283136Y0078955D01*
X0276380Y0078237D02*
X0276380Y0081106D01*
X0302811Y0072543D02*
X0302811Y0070391D01*
X0303528Y0069674D01*
X0304246Y0070391D01*
X0304246Y0071826D01*
X0304963Y0072543D01*
X0305680Y0071826D01*
X0305680Y0069674D01*
X0305680Y0068039D02*
X0305680Y0066605D01*
X0305680Y0067322D02*
X0301377Y0067322D01*
X0301377Y0066605D01*
X0301377Y0064253D02*
X0300659Y0064253D01*
X0302811Y0064253D02*
X0305680Y0064253D01*
X0305680Y0064970D02*
X0305680Y0063535D01*
X0305680Y0061801D02*
X0303528Y0061801D01*
X0302811Y0061083D01*
X0302811Y0059649D01*
X0304246Y0059649D02*
X0304963Y0058931D01*
X0305680Y0059649D01*
X0305680Y0061801D01*
X0304246Y0061801D02*
X0304246Y0059649D01*
X0303528Y0057197D02*
X0304246Y0056479D01*
X0304246Y0054328D01*
X0304246Y0055762D02*
X0305680Y0057197D01*
X0303528Y0057197D02*
X0302094Y0057197D01*
X0301377Y0056479D01*
X0301377Y0054328D01*
X0305680Y0054328D01*
X0302811Y0063535D02*
X0302811Y0064253D01*
X0303528Y0096011D02*
X0302811Y0096728D01*
X0302811Y0098880D01*
X0304246Y0098163D02*
X0304246Y0096728D01*
X0303528Y0096011D01*
X0305680Y0096011D02*
X0305680Y0098163D01*
X0304963Y0098880D01*
X0304246Y0098163D01*
X0303528Y0100615D02*
X0304963Y0100615D01*
X0305680Y0101332D01*
X0305680Y0102767D01*
X0304963Y0103484D01*
X0303528Y0103484D01*
X0302811Y0102767D01*
X0302811Y0101332D01*
X0303528Y0100615D01*
X0301377Y0105219D02*
X0301377Y0105936D01*
X0305680Y0105936D01*
X0305680Y0105219D02*
X0305680Y0106653D01*
X0304963Y0108288D02*
X0303528Y0108288D01*
X0302811Y0109005D01*
X0302811Y0111157D01*
X0301377Y0111157D02*
X0305680Y0111157D01*
X0305680Y0109005D01*
X0304963Y0108288D01*
X0304963Y0112892D02*
X0303528Y0112892D01*
X0302811Y0113609D01*
X0302811Y0115044D01*
X0303528Y0115761D01*
X0304246Y0115761D01*
X0304246Y0112892D01*
X0304963Y0112892D02*
X0305680Y0113609D01*
X0305680Y0115044D01*
X0305680Y0117496D02*
X0302811Y0117496D01*
X0302811Y0118930D02*
X0302811Y0119648D01*
X0302811Y0118930D02*
X0304246Y0117496D01*
X0305680Y0121332D02*
X0302811Y0121332D01*
X0302811Y0123484D01*
X0303528Y0124202D01*
X0305680Y0124202D01*
X0304963Y0125936D02*
X0303528Y0125936D01*
X0302811Y0126654D01*
X0302811Y0128088D01*
X0303528Y0128805D01*
X0304246Y0128805D01*
X0304246Y0125936D01*
X0304963Y0125936D02*
X0305680Y0126654D01*
X0305680Y0128088D01*
X0305680Y0130540D02*
X0302811Y0130540D01*
X0304246Y0130540D02*
X0302811Y0131975D01*
X0302811Y0132692D01*
X0303528Y0134377D02*
X0302811Y0135094D01*
X0302811Y0137246D01*
X0301377Y0137246D02*
X0305680Y0137246D01*
X0305680Y0135094D01*
X0304963Y0134377D01*
X0303528Y0134377D01*
X0304963Y0138981D02*
X0304963Y0139698D01*
X0305680Y0139698D01*
X0305680Y0138981D01*
X0304963Y0138981D01*
X0304963Y0141283D02*
X0303528Y0141283D01*
X0302811Y0142000D01*
X0302811Y0144152D01*
X0303528Y0145887D02*
X0304963Y0145887D01*
X0305680Y0146604D01*
X0305680Y0148039D01*
X0304963Y0148756D01*
X0303528Y0148756D01*
X0302811Y0148039D01*
X0302811Y0146604D01*
X0303528Y0145887D01*
X0305680Y0144152D02*
X0305680Y0142000D01*
X0304963Y0141283D01*
X0305680Y0150491D02*
X0302811Y0150491D01*
X0302811Y0151208D01*
X0303528Y0151925D01*
X0302811Y0152642D01*
X0303528Y0153360D01*
X0305680Y0153360D01*
X0305680Y0151925D02*
X0303528Y0151925D01*
X0296367Y0160553D02*
X0297801Y0161987D01*
X0297801Y0164856D01*
X0294932Y0164856D02*
X0294932Y0161987D01*
X0296367Y0160553D01*
X0293197Y0160553D02*
X0290328Y0160553D01*
X0293197Y0163422D01*
X0293197Y0164139D01*
X0292480Y0164856D01*
X0291045Y0164856D01*
X0290328Y0164139D01*
X0287159Y0164856D02*
X0287159Y0160553D01*
X0288593Y0160553D02*
X0285724Y0160553D01*
X0285724Y0163422D02*
X0287159Y0164856D01*
X0302094Y0170935D02*
X0304963Y0170935D01*
X0303528Y0169501D02*
X0303528Y0172370D01*
X0304246Y0175677D02*
X0304246Y0177828D01*
X0303528Y0178546D01*
X0302094Y0178546D01*
X0301377Y0177828D01*
X0301377Y0175677D01*
X0305680Y0175677D01*
X0304963Y0180281D02*
X0303528Y0180281D01*
X0302811Y0180998D01*
X0302811Y0182432D01*
X0303528Y0183150D01*
X0304963Y0183150D01*
X0305680Y0182432D01*
X0305680Y0180998D01*
X0304963Y0180281D01*
X0304963Y0184884D02*
X0302811Y0184884D01*
X0304963Y0184884D02*
X0305680Y0185602D01*
X0304963Y0186319D01*
X0305680Y0187036D01*
X0304963Y0187754D01*
X0302811Y0187754D01*
X0303528Y0189488D02*
X0302811Y0190206D01*
X0302811Y0191640D01*
X0303528Y0192357D01*
X0304246Y0192357D01*
X0304246Y0189488D01*
X0304963Y0189488D02*
X0303528Y0189488D01*
X0304963Y0189488D02*
X0305680Y0190206D01*
X0305680Y0191640D01*
X0305680Y0194092D02*
X0302811Y0194092D01*
X0304246Y0194092D02*
X0302811Y0195527D01*
X0302811Y0196244D01*
X0303528Y0199501D02*
X0303528Y0202370D01*
X0280499Y0187889D02*
X0280499Y0187172D01*
X0279782Y0186455D01*
X0280499Y0185737D01*
X0280499Y0185020D01*
X0279782Y0184303D01*
X0278347Y0184303D01*
X0277630Y0185020D01*
X0275895Y0185020D02*
X0275178Y0184303D01*
X0273744Y0184303D01*
X0273026Y0185020D01*
X0273026Y0187889D01*
X0273744Y0188606D01*
X0275178Y0188606D01*
X0275895Y0187889D01*
X0277630Y0187889D02*
X0278347Y0188606D01*
X0279782Y0188606D01*
X0280499Y0187889D01*
X0279782Y0186455D02*
X0279065Y0186455D01*
X0254319Y0171103D02*
X0252884Y0171103D01*
X0253601Y0171103D02*
X0253601Y0166799D01*
X0252884Y0166799D02*
X0254319Y0166799D01*
X0251249Y0167516D02*
X0251249Y0170385D01*
X0250532Y0171103D01*
X0249098Y0171103D01*
X0248380Y0170385D01*
X0246646Y0170385D02*
X0245928Y0171103D01*
X0244494Y0171103D01*
X0243776Y0170385D01*
X0243776Y0168951D01*
X0244494Y0168234D01*
X0245211Y0168234D01*
X0246646Y0168951D01*
X0246646Y0166799D01*
X0243776Y0166799D01*
X0248380Y0167516D02*
X0249098Y0166799D01*
X0250532Y0166799D01*
X0251249Y0167516D01*
X0251363Y0208049D02*
X0251363Y0212353D01*
X0252798Y0210918D01*
X0254232Y0212353D01*
X0254232Y0208049D01*
X0255967Y0210201D02*
X0258836Y0210201D01*
X0249628Y0210201D02*
X0246759Y0210201D01*
X0248194Y0211635D02*
X0248194Y0208766D01*
X0238836Y0210201D02*
X0235967Y0210201D01*
X0234232Y0210201D02*
X0232798Y0210201D01*
X0234232Y0208049D02*
X0234232Y0212353D01*
X0231363Y0212353D01*
X0229628Y0210201D02*
X0226759Y0210201D01*
X0228194Y0211635D02*
X0228194Y0208766D01*
X0231363Y0208049D02*
X0234232Y0208049D01*
X0218836Y0210201D02*
X0215967Y0210201D01*
X0214232Y0209484D02*
X0213515Y0210201D01*
X0212080Y0210201D01*
X0211363Y0210918D01*
X0211363Y0211635D01*
X0212080Y0212353D01*
X0213515Y0212353D01*
X0214232Y0211635D01*
X0214232Y0209484D02*
X0214232Y0208766D01*
X0213515Y0208049D01*
X0212080Y0208049D01*
X0211363Y0208766D01*
X0209628Y0210201D02*
X0206759Y0210201D01*
X0208194Y0211635D02*
X0208194Y0208766D01*
X0198836Y0210201D02*
X0195967Y0210201D01*
X0194232Y0212353D02*
X0194232Y0208049D01*
X0191363Y0212353D01*
X0191363Y0208049D01*
X0189628Y0210201D02*
X0186759Y0210201D01*
X0188194Y0211635D02*
X0188194Y0208766D01*
X0177747Y0230549D02*
X0177747Y0234135D01*
X0177029Y0234853D01*
X0175595Y0234853D01*
X0174878Y0234135D01*
X0174878Y0230549D01*
X0173143Y0230549D02*
X0172425Y0230549D01*
X0172425Y0234853D01*
X0171708Y0234853D02*
X0173143Y0234853D01*
X0169356Y0234135D02*
X0169356Y0231266D01*
X0170073Y0231984D02*
X0168639Y0231984D01*
X0167004Y0231984D02*
X0167004Y0234853D01*
X0167004Y0233418D02*
X0165570Y0231984D01*
X0164852Y0231984D01*
X0162450Y0231984D02*
X0161016Y0231984D01*
X0160298Y0232701D01*
X0160298Y0234853D01*
X0162450Y0234853D01*
X0163168Y0234135D01*
X0162450Y0233418D01*
X0160298Y0233418D01*
X0158564Y0232701D02*
X0157846Y0231984D01*
X0155695Y0231984D01*
X0156412Y0233418D02*
X0157846Y0233418D01*
X0158564Y0232701D01*
X0158564Y0234853D02*
X0156412Y0234853D01*
X0155695Y0234135D01*
X0156412Y0233418D01*
X0153960Y0232701D02*
X0153242Y0231984D01*
X0151808Y0231984D01*
X0151091Y0232701D01*
X0151091Y0234135D01*
X0151808Y0234853D01*
X0153242Y0234853D01*
X0153960Y0234135D01*
X0153960Y0232701D01*
X0149356Y0231984D02*
X0147204Y0231984D01*
X0146487Y0232701D01*
X0146487Y0234853D01*
X0144752Y0234853D02*
X0143317Y0234853D01*
X0144035Y0234853D02*
X0144035Y0231984D01*
X0144752Y0231984D01*
X0144035Y0230549D02*
X0144035Y0229832D01*
X0141683Y0232701D02*
X0141683Y0234135D01*
X0140965Y0234853D01*
X0138814Y0234853D01*
X0138814Y0231984D02*
X0140965Y0231984D01*
X0141683Y0232701D01*
X0149356Y0231984D02*
X0149356Y0234853D01*
X0132475Y0234853D02*
X0132475Y0231984D01*
X0131040Y0230549D01*
X0129606Y0231984D01*
X0129606Y0234853D01*
X0127871Y0234853D02*
X0127871Y0231984D01*
X0125719Y0231984D01*
X0125002Y0232701D01*
X0125002Y0234853D01*
X0123267Y0234135D02*
X0123267Y0232701D01*
X0122550Y0231984D01*
X0121115Y0231984D01*
X0120398Y0232701D01*
X0120398Y0233418D01*
X0123267Y0233418D01*
X0123267Y0234135D02*
X0122550Y0234853D01*
X0121115Y0234853D01*
X0118663Y0234853D02*
X0118663Y0231984D01*
X0117946Y0231984D01*
X0117228Y0232701D01*
X0116511Y0231984D01*
X0115794Y0232701D01*
X0115794Y0234853D01*
X0117228Y0234853D02*
X0117228Y0232701D01*
X0114059Y0232701D02*
X0113342Y0231984D01*
X0111907Y0231984D01*
X0111190Y0232701D01*
X0111190Y0234135D01*
X0111907Y0234853D01*
X0113342Y0234853D01*
X0114059Y0234135D01*
X0114059Y0232701D01*
X0109455Y0231984D02*
X0108738Y0231984D01*
X0108021Y0232701D01*
X0107303Y0231984D01*
X0106586Y0232701D01*
X0106586Y0234853D01*
X0108021Y0234853D02*
X0108021Y0232701D01*
X0109455Y0231984D02*
X0109455Y0234853D01*
X0104851Y0234135D02*
X0104851Y0232701D01*
X0104134Y0231984D01*
X0102699Y0231984D01*
X0101982Y0232701D01*
X0101982Y0233418D01*
X0104851Y0233418D01*
X0104851Y0234135D02*
X0104134Y0234853D01*
X0102699Y0234853D01*
X0099530Y0234135D02*
X0099530Y0231266D01*
X0100247Y0231984D02*
X0098813Y0231984D01*
X0097178Y0232701D02*
X0096461Y0231984D01*
X0095026Y0231984D01*
X0094309Y0232701D01*
X0094309Y0233418D01*
X0097178Y0233418D01*
X0097178Y0234135D02*
X0097178Y0232701D01*
X0097178Y0234135D02*
X0096461Y0234853D01*
X0095026Y0234853D01*
X0092574Y0234853D02*
X0092574Y0231984D01*
X0092574Y0233418D02*
X0091140Y0231984D01*
X0090422Y0231984D01*
X0084134Y0233418D02*
X0081982Y0233418D01*
X0081264Y0232701D01*
X0081264Y0231266D01*
X0081982Y0230549D01*
X0084134Y0230549D01*
X0084134Y0234853D01*
X0082699Y0233418D02*
X0081264Y0234853D01*
X0079530Y0234135D02*
X0079530Y0232701D01*
X0078812Y0231984D01*
X0077378Y0231984D01*
X0076661Y0232701D01*
X0076661Y0233418D01*
X0079530Y0233418D01*
X0079530Y0234135D02*
X0078812Y0234853D01*
X0077378Y0234853D01*
X0074926Y0231984D02*
X0073491Y0234853D01*
X0072057Y0231984D01*
X0065718Y0232701D02*
X0063566Y0232701D01*
X0062849Y0233418D01*
X0062849Y0234135D01*
X0063566Y0234853D01*
X0065718Y0234853D01*
X0065718Y0230549D01*
X0063566Y0230549D01*
X0062849Y0231266D01*
X0062849Y0231984D01*
X0063566Y0232701D01*
X0098813Y0234853D02*
X0099530Y0234135D01*
X0129606Y0232701D02*
X0132475Y0232701D01*
X0168639Y0234853D02*
X0169356Y0234135D01*
X0199111Y0234135D02*
X0199828Y0233418D01*
X0201263Y0233418D01*
X0201980Y0232701D01*
X0201263Y0231984D01*
X0199111Y0231984D01*
X0199111Y0234135D02*
X0199828Y0234853D01*
X0201980Y0234853D01*
X0203665Y0231984D02*
X0204382Y0231984D01*
X0205816Y0233418D01*
X0205816Y0231984D02*
X0205816Y0234853D01*
X0207551Y0233418D02*
X0210420Y0233418D01*
X0210420Y0232701D02*
X0209703Y0231984D01*
X0208269Y0231984D01*
X0207551Y0232701D01*
X0207551Y0233418D01*
X0208269Y0234853D02*
X0209703Y0234853D01*
X0210420Y0234135D01*
X0210420Y0232701D01*
X0212155Y0231984D02*
X0214307Y0231984D01*
X0215024Y0232701D01*
X0215024Y0234135D01*
X0214307Y0234853D01*
X0212155Y0234853D01*
X0216759Y0234853D02*
X0216759Y0231984D01*
X0216759Y0234853D02*
X0218911Y0234853D01*
X0219628Y0234135D01*
X0219628Y0231984D01*
X0221363Y0231984D02*
X0223515Y0231984D01*
X0224232Y0232701D01*
X0224232Y0234135D01*
X0223515Y0234853D01*
X0221363Y0234853D01*
X0221363Y0230549D01*
X0225967Y0231984D02*
X0228119Y0231984D01*
X0228836Y0232701D01*
X0228119Y0233418D01*
X0226684Y0233418D01*
X0225967Y0234135D01*
X0226684Y0234853D01*
X0228836Y0234853D01*
X0230571Y0234853D02*
X0230571Y0232701D01*
X0231288Y0231984D01*
X0233440Y0231984D01*
X0233440Y0234853D01*
X0235175Y0234853D02*
X0237327Y0234853D01*
X0238044Y0234135D01*
X0237327Y0233418D01*
X0235175Y0233418D01*
X0235175Y0232701D02*
X0235175Y0234853D01*
X0235175Y0232701D02*
X0235892Y0231984D01*
X0237327Y0231984D01*
X0239729Y0231984D02*
X0240446Y0231984D01*
X0241881Y0233418D01*
X0241881Y0231984D02*
X0241881Y0234853D01*
X0245050Y0234853D02*
X0245050Y0230549D01*
X0246484Y0230549D02*
X0243615Y0230549D01*
X0196819Y0171103D02*
X0195384Y0171103D01*
X0196101Y0171103D02*
X0196101Y0166799D01*
X0195384Y0166799D02*
X0196819Y0166799D01*
X0193749Y0167516D02*
X0193749Y0170385D01*
X0193032Y0171103D01*
X0191598Y0171103D01*
X0190880Y0170385D01*
X0189146Y0168951D02*
X0186276Y0168951D01*
X0186994Y0171103D02*
X0186994Y0166799D01*
X0189146Y0168951D01*
X0190880Y0167516D02*
X0191598Y0166799D01*
X0193032Y0166799D01*
X0193749Y0167516D01*
X0149051Y0148422D02*
X0146899Y0148422D01*
X0146182Y0147705D01*
X0146182Y0146270D01*
X0146899Y0145553D01*
X0149051Y0145553D01*
X0144447Y0146987D02*
X0141578Y0146987D01*
X0141578Y0146270D02*
X0141578Y0147705D01*
X0142295Y0148422D01*
X0143730Y0148422D01*
X0144447Y0147705D01*
X0144447Y0146987D01*
X0143730Y0145553D02*
X0142295Y0145553D01*
X0141578Y0146270D01*
X0139843Y0145553D02*
X0138409Y0146987D01*
X0139126Y0146987D02*
X0136974Y0146987D01*
X0136974Y0145553D02*
X0136974Y0149856D01*
X0139126Y0149856D01*
X0139843Y0149139D01*
X0139843Y0147705D01*
X0139126Y0146987D01*
X0122871Y0151799D02*
X0121436Y0151799D01*
X0122153Y0151799D02*
X0122153Y0156103D01*
X0121436Y0156103D02*
X0122871Y0156103D01*
X0119801Y0155385D02*
X0119801Y0152516D01*
X0119084Y0151799D01*
X0117650Y0151799D01*
X0116932Y0152516D01*
X0115198Y0153234D02*
X0113763Y0151799D01*
X0113763Y0156103D01*
X0115198Y0156103D02*
X0112328Y0156103D01*
X0110594Y0155385D02*
X0110594Y0152516D01*
X0109876Y0151799D01*
X0108442Y0151799D01*
X0107724Y0152516D01*
X0110594Y0155385D01*
X0109876Y0156103D01*
X0108442Y0156103D01*
X0107724Y0155385D01*
X0107724Y0152516D01*
X0116932Y0155385D02*
X0117650Y0156103D01*
X0119084Y0156103D01*
X0119801Y0155385D01*
X0094065Y0141106D02*
X0094065Y0136803D01*
X0095499Y0136803D02*
X0092630Y0136803D01*
X0090895Y0137520D02*
X0090178Y0136803D01*
X0088744Y0136803D01*
X0088026Y0137520D01*
X0088744Y0138955D02*
X0090178Y0138955D01*
X0090895Y0138237D01*
X0090895Y0137520D01*
X0088744Y0138955D02*
X0088026Y0139672D01*
X0088026Y0140389D01*
X0088744Y0141106D01*
X0090178Y0141106D01*
X0090895Y0140389D01*
X0092630Y0139672D02*
X0094065Y0141106D01*
X0069707Y0131639D02*
X0069707Y0128770D01*
X0068990Y0128053D01*
X0066838Y0128053D01*
X0066838Y0132356D01*
X0068990Y0132356D01*
X0069707Y0131639D01*
X0065103Y0132356D02*
X0065103Y0128053D01*
X0062234Y0132356D01*
X0062234Y0128053D01*
X0060499Y0128770D02*
X0060499Y0130205D01*
X0059065Y0130205D01*
X0060499Y0131639D02*
X0059782Y0132356D01*
X0058347Y0132356D01*
X0057630Y0131639D01*
X0057630Y0128770D01*
X0058347Y0128053D01*
X0059782Y0128053D01*
X0060499Y0128770D01*
X0059782Y0122356D02*
X0058347Y0122356D01*
X0057630Y0121639D01*
X0057630Y0120922D01*
X0058347Y0120205D01*
X0059782Y0120205D01*
X0060499Y0119487D01*
X0060499Y0118770D01*
X0059782Y0118053D01*
X0058347Y0118053D01*
X0057630Y0118770D01*
X0060499Y0121639D02*
X0059782Y0122356D01*
X0062234Y0122356D02*
X0063669Y0122356D01*
X0062951Y0122356D02*
X0062951Y0118053D01*
X0062234Y0118053D02*
X0063669Y0118053D01*
X0065303Y0118770D02*
X0066021Y0118053D01*
X0067455Y0118053D01*
X0068172Y0118770D01*
X0068172Y0120205D01*
X0066738Y0120205D01*
X0068172Y0121639D02*
X0067455Y0122356D01*
X0066021Y0122356D01*
X0065303Y0121639D01*
X0065303Y0118770D01*
X0065103Y0112356D02*
X0062234Y0108053D01*
X0060499Y0108053D02*
X0060499Y0110922D01*
X0059065Y0112356D01*
X0057630Y0110922D01*
X0057630Y0108053D01*
X0057630Y0110205D02*
X0060499Y0110205D01*
X0062234Y0112356D02*
X0065103Y0108053D01*
X0066838Y0108053D02*
X0068273Y0108053D01*
X0067555Y0108053D02*
X0067555Y0112356D01*
X0066838Y0112356D02*
X0068273Y0112356D01*
X0069907Y0111639D02*
X0069907Y0110922D01*
X0070625Y0110205D01*
X0072059Y0110205D01*
X0072776Y0109487D01*
X0072776Y0108770D01*
X0072059Y0108053D01*
X0070625Y0108053D01*
X0069907Y0108770D01*
X0069907Y0111639D02*
X0070625Y0112356D01*
X0072059Y0112356D01*
X0072776Y0111639D01*
X0067455Y0102356D02*
X0068172Y0101639D01*
X0068172Y0100205D01*
X0067455Y0099487D01*
X0065303Y0099487D01*
X0065303Y0098053D02*
X0065303Y0102356D01*
X0067455Y0102356D01*
X0066738Y0099487D02*
X0068172Y0098053D01*
X0063669Y0098053D02*
X0062234Y0098053D01*
X0062951Y0098053D02*
X0062951Y0102356D01*
X0062234Y0102356D02*
X0063669Y0102356D01*
X0060499Y0101639D02*
X0060499Y0098770D01*
X0059782Y0098053D01*
X0057630Y0098053D01*
X0057630Y0102356D01*
X0059782Y0102356D01*
X0060499Y0101639D01*
X0059782Y0082356D02*
X0057630Y0082356D01*
X0057630Y0078053D01*
X0057630Y0079487D02*
X0059782Y0079487D01*
X0060499Y0080205D01*
X0060499Y0081639D01*
X0059782Y0082356D01*
X0062234Y0081639D02*
X0062234Y0078770D01*
X0062951Y0078053D01*
X0064386Y0078053D01*
X0065103Y0078770D01*
X0065103Y0080205D01*
X0063669Y0080205D01*
X0065103Y0081639D02*
X0064386Y0082356D01*
X0062951Y0082356D01*
X0062234Y0081639D01*
X0066838Y0081639D02*
X0066838Y0078770D01*
X0067555Y0078053D01*
X0068990Y0078053D01*
X0069707Y0078770D01*
X0069707Y0081639D02*
X0068990Y0082356D01*
X0067555Y0082356D01*
X0066838Y0081639D01*
X0066838Y0072356D02*
X0068990Y0072356D01*
X0069707Y0071639D01*
X0069707Y0068770D01*
X0068990Y0068053D01*
X0066838Y0068053D01*
X0066838Y0072356D01*
X0065103Y0071639D02*
X0064386Y0072356D01*
X0062951Y0072356D01*
X0062234Y0071639D01*
X0062234Y0068770D01*
X0062951Y0068053D01*
X0064386Y0068053D01*
X0065103Y0068770D01*
X0065103Y0070205D01*
X0063669Y0070205D01*
X0060499Y0070205D02*
X0059782Y0069487D01*
X0057630Y0069487D01*
X0057630Y0068053D02*
X0057630Y0072356D01*
X0059782Y0072356D01*
X0060499Y0071639D01*
X0060499Y0070205D01*
X0059782Y0062356D02*
X0058347Y0062356D01*
X0057630Y0061639D01*
X0057630Y0058770D01*
X0058347Y0058053D01*
X0059782Y0058053D01*
X0060499Y0058770D01*
X0060499Y0060205D01*
X0059065Y0060205D01*
X0060499Y0061639D02*
X0059782Y0062356D01*
X0062234Y0062356D02*
X0065103Y0058053D01*
X0065103Y0062356D01*
X0066838Y0062356D02*
X0068990Y0062356D01*
X0069707Y0061639D01*
X0069707Y0058770D01*
X0068990Y0058053D01*
X0066838Y0058053D01*
X0066838Y0062356D01*
X0062234Y0062356D02*
X0062234Y0058053D01*
X0062234Y0052356D02*
X0062234Y0049487D01*
X0063669Y0048053D01*
X0065103Y0049487D01*
X0065103Y0052356D01*
X0066838Y0051639D02*
X0067555Y0052356D01*
X0068990Y0052356D01*
X0069707Y0051639D01*
X0069707Y0050922D01*
X0068990Y0050205D01*
X0069707Y0049487D01*
X0069707Y0048770D01*
X0068990Y0048053D01*
X0067555Y0048053D01*
X0066838Y0048770D01*
X0068273Y0050205D02*
X0068990Y0050205D01*
X0075696Y0043753D02*
X0057280Y0043753D01*
X0058347Y0048053D02*
X0057630Y0048770D01*
X0058347Y0048053D02*
X0059782Y0048053D01*
X0060499Y0048770D01*
X0060499Y0049487D01*
X0059782Y0050205D01*
X0059065Y0050205D01*
X0059782Y0050205D02*
X0060499Y0050922D01*
X0060499Y0051639D01*
X0059782Y0052356D01*
X0058347Y0052356D01*
X0057630Y0051639D01*
X0062234Y0038770D02*
X0062951Y0038053D01*
X0064386Y0038053D01*
X0065103Y0038770D01*
X0039434Y0053864D02*
X0038717Y0053147D01*
X0037282Y0053147D01*
X0036565Y0053864D01*
X0036565Y0056016D01*
X0035130Y0056016D02*
X0039434Y0056016D01*
X0039434Y0053864D01*
X0038717Y0057751D02*
X0039434Y0058468D01*
X0039434Y0059903D01*
X0038717Y0060620D01*
X0037999Y0060620D01*
X0037282Y0059903D01*
X0037282Y0058468D01*
X0036565Y0057751D01*
X0035847Y0057751D01*
X0035130Y0058468D01*
X0035130Y0059903D01*
X0035847Y0060620D01*
X0035847Y0062355D02*
X0035130Y0063072D01*
X0035130Y0064507D01*
X0035847Y0065224D01*
X0038717Y0065224D01*
X0039434Y0064507D01*
X0039434Y0063072D01*
X0038717Y0062355D01*
X0039434Y0066859D02*
X0039434Y0068293D01*
X0039434Y0067576D02*
X0035130Y0067576D01*
X0035130Y0068293D02*
X0035130Y0066859D01*
X0035847Y0102009D02*
X0036565Y0102726D01*
X0036565Y0104160D01*
X0037282Y0104878D01*
X0037999Y0104160D01*
X0037999Y0102009D01*
X0035847Y0102009D02*
X0035130Y0102726D01*
X0035130Y0104878D01*
X0035130Y0106512D02*
X0035847Y0107230D01*
X0038717Y0107230D01*
X0037999Y0107947D02*
X0037999Y0106512D01*
X0037999Y0109682D02*
X0035130Y0109682D01*
X0035130Y0111834D01*
X0035847Y0112551D01*
X0037999Y0112551D01*
X0037282Y0114286D02*
X0035847Y0114286D01*
X0035130Y0115003D01*
X0035130Y0117155D01*
X0033696Y0117155D02*
X0037999Y0117155D01*
X0037999Y0115003D01*
X0037282Y0114286D01*
X0037999Y0118789D02*
X0037999Y0120224D01*
X0038717Y0119507D02*
X0035847Y0119507D01*
X0035130Y0118789D01*
X0035130Y0121959D02*
X0037999Y0121959D01*
X0035130Y0121959D02*
X0035130Y0124111D01*
X0035847Y0124828D01*
X0037999Y0124828D01*
X0038717Y0126563D02*
X0039434Y0127280D01*
X0039434Y0128715D01*
X0038717Y0129432D01*
X0035847Y0129432D01*
X0035130Y0128715D01*
X0035130Y0127280D01*
X0035847Y0126563D01*
X0038717Y0126563D01*
X0037999Y0137676D02*
X0037999Y0139110D01*
X0038717Y0138393D02*
X0035847Y0138393D01*
X0035130Y0137676D01*
X0035130Y0140845D02*
X0037282Y0140845D01*
X0037999Y0141562D01*
X0037999Y0143714D01*
X0035130Y0143714D01*
X0035130Y0145349D02*
X0035130Y0146784D01*
X0035130Y0146066D02*
X0039434Y0146066D01*
X0039434Y0145349D02*
X0039434Y0146784D01*
X0038717Y0153122D02*
X0039434Y0153840D01*
X0039434Y0155274D01*
X0038717Y0155991D01*
X0035847Y0155991D01*
X0035130Y0155274D01*
X0035130Y0153840D01*
X0035847Y0153122D01*
X0035130Y0157726D02*
X0035130Y0160595D01*
X0037999Y0157726D01*
X0038717Y0157726D01*
X0039434Y0158443D01*
X0039434Y0159878D01*
X0038717Y0160595D01*
X0039434Y0162230D02*
X0039434Y0163665D01*
X0039434Y0162947D02*
X0035130Y0162947D01*
X0035130Y0162230D02*
X0035130Y0163665D01*
X0035847Y0174310D02*
X0036565Y0175028D01*
X0036565Y0176462D01*
X0037282Y0177180D01*
X0037999Y0176462D01*
X0037999Y0174310D01*
X0035847Y0174310D02*
X0035130Y0175028D01*
X0035130Y0177180D01*
X0035130Y0178814D02*
X0035847Y0179532D01*
X0038717Y0179532D01*
X0037999Y0180249D02*
X0037999Y0178814D01*
X0037999Y0181984D02*
X0035130Y0181984D01*
X0035130Y0184136D01*
X0035847Y0184853D01*
X0037999Y0184853D01*
X0037282Y0186588D02*
X0035847Y0186588D01*
X0035130Y0187305D01*
X0035130Y0189457D01*
X0033696Y0189457D02*
X0037999Y0189457D01*
X0037999Y0187305D01*
X0037282Y0186588D01*
X0037282Y0191192D02*
X0035130Y0191192D01*
X0037282Y0191192D02*
X0037999Y0191909D01*
X0037999Y0194061D01*
X0035130Y0194061D01*
X0035130Y0195695D02*
X0035130Y0197130D01*
X0035130Y0196413D02*
X0039434Y0196413D01*
X0039434Y0197130D02*
X0039434Y0195695D01*
X0057630Y0198770D02*
X0058347Y0198053D01*
X0059782Y0198053D01*
X0060499Y0198770D01*
X0060499Y0200205D01*
X0059065Y0200205D01*
X0060499Y0201639D02*
X0059782Y0202356D01*
X0058347Y0202356D01*
X0057630Y0201639D01*
X0057630Y0198770D01*
X0062234Y0198053D02*
X0062234Y0202356D01*
X0065103Y0198053D01*
X0065103Y0202356D01*
X0066838Y0202356D02*
X0068990Y0202356D01*
X0069707Y0201639D01*
X0069707Y0198770D01*
X0068990Y0198053D01*
X0066838Y0198053D01*
X0066838Y0202356D01*
X0066838Y0192356D02*
X0068990Y0192356D01*
X0069707Y0191639D01*
X0069707Y0188770D01*
X0068990Y0188053D01*
X0066838Y0188053D01*
X0066838Y0192356D01*
X0065103Y0191639D02*
X0064386Y0192356D01*
X0062951Y0192356D01*
X0062234Y0191639D01*
X0062234Y0188770D01*
X0062951Y0188053D01*
X0064386Y0188053D01*
X0065103Y0188770D01*
X0060499Y0188053D02*
X0057630Y0188053D01*
X0057630Y0188770D01*
X0060499Y0191639D01*
X0060499Y0192356D01*
X0057630Y0192356D01*
X0059065Y0182356D02*
X0057630Y0180922D01*
X0057630Y0178053D01*
X0057630Y0180205D02*
X0060499Y0180205D01*
X0060499Y0180922D02*
X0060499Y0178053D01*
X0062234Y0178053D02*
X0064386Y0178053D01*
X0065103Y0178770D01*
X0065103Y0181639D01*
X0064386Y0182356D01*
X0062234Y0182356D01*
X0062234Y0178053D01*
X0066838Y0178770D02*
X0067555Y0178053D01*
X0068990Y0178053D01*
X0069707Y0178770D01*
X0071442Y0180205D02*
X0074311Y0180205D01*
X0069707Y0181639D02*
X0068990Y0182356D01*
X0067555Y0182356D01*
X0066838Y0181639D01*
X0066838Y0178770D01*
X0060499Y0180922D02*
X0059065Y0182356D01*
X0059065Y0172356D02*
X0057630Y0170922D01*
X0057630Y0168053D01*
X0057630Y0170205D02*
X0060499Y0170205D01*
X0060499Y0170922D02*
X0060499Y0168053D01*
X0062234Y0168053D02*
X0062234Y0172356D01*
X0064386Y0172356D01*
X0065103Y0171639D01*
X0065103Y0168770D01*
X0064386Y0168053D01*
X0062234Y0168053D01*
X0060499Y0170922D02*
X0059065Y0172356D01*
X0066838Y0171639D02*
X0066838Y0168770D01*
X0067555Y0168053D01*
X0068990Y0168053D01*
X0069707Y0168770D01*
X0071442Y0170205D02*
X0074311Y0170205D01*
X0072877Y0171639D02*
X0072877Y0168770D01*
X0069707Y0171639D02*
X0068990Y0172356D01*
X0067555Y0172356D01*
X0066838Y0171639D01*
X0066838Y0162356D02*
X0068990Y0162356D01*
X0069707Y0161639D01*
X0069707Y0158770D01*
X0068990Y0158053D01*
X0066838Y0158053D01*
X0066838Y0162356D01*
X0065103Y0162356D02*
X0065103Y0158053D01*
X0062234Y0162356D01*
X0062234Y0158053D01*
X0060499Y0158770D02*
X0060499Y0160205D01*
X0059065Y0160205D01*
X0060499Y0161639D02*
X0059782Y0162356D01*
X0058347Y0162356D01*
X0057630Y0161639D01*
X0057630Y0158770D01*
X0058347Y0158053D01*
X0059782Y0158053D01*
X0060499Y0158770D01*
X0059782Y0152356D02*
X0058347Y0152356D01*
X0057630Y0151639D01*
X0057630Y0148770D01*
X0058347Y0148053D01*
X0059782Y0148053D01*
X0060499Y0148770D01*
X0060499Y0151639D02*
X0059782Y0152356D01*
X0059782Y0142356D02*
X0057630Y0142356D01*
X0057630Y0138053D01*
X0059782Y0138053D01*
X0060499Y0138770D01*
X0060499Y0141639D01*
X0059782Y0142356D01*
X0093877Y0110737D02*
X0098180Y0110737D01*
X0098180Y0109303D02*
X0098180Y0112172D01*
X0095311Y0109303D02*
X0093877Y0110737D01*
X0093877Y0107568D02*
X0098180Y0104699D01*
X0098180Y0107568D02*
X0093877Y0104699D01*
X0102742Y0077356D02*
X0104176Y0077356D01*
X0103459Y0077356D02*
X0103459Y0073053D01*
X0102742Y0073053D02*
X0104176Y0073053D01*
X0105811Y0073770D02*
X0105811Y0076639D01*
X0106528Y0077356D01*
X0107963Y0077356D01*
X0108680Y0076639D01*
X0110415Y0076639D02*
X0111132Y0077356D01*
X0112567Y0077356D01*
X0113284Y0076639D01*
X0113284Y0075922D01*
X0110415Y0073053D01*
X0113284Y0073053D01*
X0108680Y0073770D02*
X0107963Y0073053D01*
X0106528Y0073053D01*
X0105811Y0073770D01*
X0182627Y0106914D02*
X0182627Y0108349D01*
X0182627Y0107631D02*
X0186930Y0107631D01*
X0186930Y0106914D02*
X0186930Y0108349D01*
X0186213Y0109983D02*
X0186930Y0110701D01*
X0186930Y0112135D01*
X0186213Y0112853D01*
X0186213Y0114587D02*
X0185496Y0114587D01*
X0184778Y0115305D01*
X0184778Y0116739D01*
X0185496Y0117456D01*
X0186213Y0117456D01*
X0186930Y0116739D01*
X0186930Y0115305D01*
X0186213Y0114587D01*
X0184778Y0115305D02*
X0184061Y0114587D01*
X0183344Y0114587D01*
X0182627Y0115305D01*
X0182627Y0116739D01*
X0183344Y0117456D01*
X0184061Y0117456D01*
X0184778Y0116739D01*
X0183344Y0112853D02*
X0182627Y0112135D01*
X0182627Y0110701D01*
X0183344Y0109983D01*
X0186213Y0109983D01*
X0196930Y0057456D02*
X0196930Y0054587D01*
X0196930Y0056022D02*
X0192627Y0056022D01*
X0194061Y0054587D01*
X0193344Y0052853D02*
X0192627Y0052135D01*
X0192627Y0050701D01*
X0193344Y0049983D01*
X0196213Y0049983D01*
X0196930Y0050701D01*
X0196930Y0052135D01*
X0196213Y0052853D01*
X0196930Y0048349D02*
X0196930Y0046914D01*
X0196930Y0047631D02*
X0192627Y0047631D01*
X0192627Y0046914D02*
X0192627Y0048349D01*
X0123966Y0007356D02*
X0123966Y0003053D01*
X0123249Y0003053D02*
X0124683Y0003053D01*
X0121514Y0003053D02*
X0119362Y0003053D01*
X0118645Y0003770D01*
X0119362Y0004487D01*
X0121514Y0004487D01*
X0121514Y0005205D02*
X0121514Y0003053D01*
X0121514Y0005205D02*
X0120797Y0005922D01*
X0119362Y0005922D01*
X0116910Y0005205D02*
X0116910Y0003053D01*
X0116910Y0005205D02*
X0116193Y0005922D01*
X0114041Y0005922D01*
X0114041Y0003053D01*
X0112356Y0005922D02*
X0111639Y0005922D01*
X0110204Y0004487D01*
X0110204Y0003053D02*
X0110204Y0005922D01*
X0108469Y0005205D02*
X0108469Y0004487D01*
X0105600Y0004487D01*
X0105600Y0003770D02*
X0105600Y0005205D01*
X0106318Y0005922D01*
X0107752Y0005922D01*
X0108469Y0005205D01*
X0107752Y0003053D02*
X0106318Y0003053D01*
X0105600Y0003770D01*
X0103966Y0003053D02*
X0103248Y0003770D01*
X0103248Y0006639D01*
X0102531Y0005922D02*
X0103966Y0005922D01*
X0100796Y0005922D02*
X0097927Y0003053D01*
X0096192Y0003053D02*
X0093323Y0003053D01*
X0093323Y0007356D01*
X0096192Y0007356D01*
X0097927Y0005922D02*
X0100796Y0003053D01*
X0094758Y0005205D02*
X0093323Y0005205D01*
X0086985Y0006639D02*
X0086267Y0007356D01*
X0084833Y0007356D01*
X0084115Y0006639D01*
X0084115Y0003770D01*
X0084833Y0003053D01*
X0086267Y0003053D01*
X0086985Y0003770D01*
X0082381Y0003053D02*
X0079511Y0003053D01*
X0082381Y0005922D01*
X0082381Y0006639D01*
X0081663Y0007356D01*
X0080229Y0007356D01*
X0079511Y0006639D01*
X0077877Y0007356D02*
X0076442Y0007356D01*
X0077159Y0007356D02*
X0077159Y0003053D01*
X0076442Y0003053D02*
X0077877Y0003053D01*
X0123249Y0007356D02*
X0123966Y0007356D01*
X0258877Y0106914D02*
X0258877Y0108349D01*
X0258877Y0107631D02*
X0263180Y0107631D01*
X0263180Y0106914D02*
X0263180Y0108349D01*
X0262463Y0109983D02*
X0263180Y0110701D01*
X0263180Y0112135D01*
X0262463Y0112853D01*
X0262463Y0114587D02*
X0263180Y0115305D01*
X0263180Y0116739D01*
X0262463Y0117456D01*
X0261746Y0117456D01*
X0261028Y0116739D01*
X0261028Y0114587D01*
X0262463Y0114587D01*
X0261028Y0114587D02*
X0259594Y0116022D01*
X0258877Y0117456D01*
X0259594Y0112853D02*
X0258877Y0112135D01*
X0258877Y0110701D01*
X0259594Y0109983D01*
X0262463Y0109983D01*
D11*
X0041030Y0035203D02*
X0032280Y0035203D01*
X0041530Y0035203D02*
X0055530Y0035203D01*
X0055530Y0085203D01*
X0041530Y0085203D01*
X0041530Y0035203D01*
X0071030Y0023453D02*
X0131030Y0023453D01*
X0131030Y0009453D01*
X0071030Y0009453D01*
X0071030Y0023453D01*
X0082684Y0030350D02*
X0089377Y0030350D01*
X0089377Y0042555D01*
X0082684Y0042555D01*
X0082684Y0030350D01*
X0092684Y0030350D02*
X0099377Y0030350D01*
X0099377Y0042555D01*
X0092684Y0042555D01*
X0092684Y0030350D01*
X0103550Y0039091D02*
X0103550Y0043815D01*
X0108668Y0043815D01*
X0108668Y0039091D01*
X0103550Y0039091D01*
X0108668Y0039091D02*
X0111818Y0039091D01*
X0108668Y0041453D01*
X0111818Y0043815D01*
X0111818Y0039091D01*
X0118510Y0039091D01*
X0118510Y0043815D01*
X0111818Y0043815D01*
X0108668Y0043815D01*
X0104928Y0045606D02*
X0117133Y0045606D01*
X0117133Y0052299D01*
X0104928Y0052299D01*
X0104928Y0045606D01*
X0100883Y0045606D02*
X0100883Y0052299D01*
X0088678Y0052299D01*
X0088678Y0045606D01*
X0100883Y0045606D01*
X0129928Y0048549D02*
X0129928Y0041856D01*
X0142133Y0041856D01*
X0142133Y0048549D01*
X0129928Y0048549D01*
X0140730Y0060584D02*
X0140730Y0089822D01*
X0071230Y0089822D01*
X0071230Y0060584D01*
X0140730Y0060584D01*
X0141434Y0082850D02*
X0148127Y0082850D01*
X0148127Y0095055D01*
X0141434Y0095055D01*
X0141434Y0082850D01*
X0134930Y0086028D02*
X0134932Y0086120D01*
X0134938Y0086211D01*
X0134948Y0086302D01*
X0134962Y0086393D01*
X0134980Y0086483D01*
X0135002Y0086572D01*
X0135027Y0086659D01*
X0135057Y0086746D01*
X0135090Y0086832D01*
X0135127Y0086915D01*
X0135167Y0086998D01*
X0135211Y0087078D01*
X0135259Y0087156D01*
X0135310Y0087233D01*
X0135364Y0087306D01*
X0135421Y0087378D01*
X0135482Y0087447D01*
X0135545Y0087513D01*
X0135611Y0087576D01*
X0135680Y0087637D01*
X0135752Y0087694D01*
X0135825Y0087748D01*
X0135902Y0087799D01*
X0135980Y0087847D01*
X0136060Y0087891D01*
X0136143Y0087931D01*
X0136226Y0087968D01*
X0136312Y0088001D01*
X0136399Y0088031D01*
X0136486Y0088056D01*
X0136575Y0088078D01*
X0136665Y0088096D01*
X0136756Y0088110D01*
X0136847Y0088120D01*
X0136938Y0088126D01*
X0137030Y0088128D01*
X0137122Y0088126D01*
X0137213Y0088120D01*
X0137304Y0088110D01*
X0137395Y0088096D01*
X0137485Y0088078D01*
X0137574Y0088056D01*
X0137661Y0088031D01*
X0137748Y0088001D01*
X0137834Y0087968D01*
X0137917Y0087931D01*
X0138000Y0087891D01*
X0138080Y0087847D01*
X0138158Y0087799D01*
X0138235Y0087748D01*
X0138308Y0087694D01*
X0138380Y0087637D01*
X0138449Y0087576D01*
X0138515Y0087513D01*
X0138578Y0087447D01*
X0138639Y0087378D01*
X0138696Y0087306D01*
X0138750Y0087233D01*
X0138801Y0087156D01*
X0138849Y0087078D01*
X0138893Y0086998D01*
X0138933Y0086915D01*
X0138970Y0086832D01*
X0139003Y0086746D01*
X0139033Y0086659D01*
X0139058Y0086572D01*
X0139080Y0086483D01*
X0139098Y0086393D01*
X0139112Y0086302D01*
X0139122Y0086211D01*
X0139128Y0086120D01*
X0139130Y0086028D01*
X0139128Y0085936D01*
X0139122Y0085845D01*
X0139112Y0085754D01*
X0139098Y0085663D01*
X0139080Y0085573D01*
X0139058Y0085484D01*
X0139033Y0085397D01*
X0139003Y0085310D01*
X0138970Y0085224D01*
X0138933Y0085141D01*
X0138893Y0085058D01*
X0138849Y0084978D01*
X0138801Y0084900D01*
X0138750Y0084823D01*
X0138696Y0084750D01*
X0138639Y0084678D01*
X0138578Y0084609D01*
X0138515Y0084543D01*
X0138449Y0084480D01*
X0138380Y0084419D01*
X0138308Y0084362D01*
X0138235Y0084308D01*
X0138158Y0084257D01*
X0138080Y0084209D01*
X0138000Y0084165D01*
X0137917Y0084125D01*
X0137834Y0084088D01*
X0137748Y0084055D01*
X0137661Y0084025D01*
X0137574Y0084000D01*
X0137485Y0083978D01*
X0137395Y0083960D01*
X0137304Y0083946D01*
X0137213Y0083936D01*
X0137122Y0083930D01*
X0137030Y0083928D01*
X0136938Y0083930D01*
X0136847Y0083936D01*
X0136756Y0083946D01*
X0136665Y0083960D01*
X0136575Y0083978D01*
X0136486Y0084000D01*
X0136399Y0084025D01*
X0136312Y0084055D01*
X0136226Y0084088D01*
X0136143Y0084125D01*
X0136060Y0084165D01*
X0135980Y0084209D01*
X0135902Y0084257D01*
X0135825Y0084308D01*
X0135752Y0084362D01*
X0135680Y0084419D01*
X0135611Y0084480D01*
X0135545Y0084543D01*
X0135482Y0084609D01*
X0135421Y0084678D01*
X0135364Y0084750D01*
X0135310Y0084823D01*
X0135259Y0084900D01*
X0135211Y0084978D01*
X0135167Y0085058D01*
X0135127Y0085141D01*
X0135090Y0085224D01*
X0135057Y0085310D01*
X0135027Y0085397D01*
X0135002Y0085484D01*
X0134980Y0085573D01*
X0134962Y0085663D01*
X0134948Y0085754D01*
X0134938Y0085845D01*
X0134932Y0085936D01*
X0134930Y0086028D01*
X0160184Y0097850D02*
X0166877Y0097850D01*
X0166877Y0110055D01*
X0160184Y0110055D01*
X0160184Y0097850D01*
X0177694Y0092624D02*
X0177694Y0132781D01*
X0191867Y0132781D01*
X0191867Y0092624D01*
X0177694Y0092624D01*
X0177133Y0073549D02*
X0164928Y0073549D01*
X0164928Y0066856D01*
X0177133Y0066856D01*
X0177133Y0073549D01*
X0179928Y0073549D02*
X0179928Y0066856D01*
X0192133Y0066856D01*
X0192133Y0073549D01*
X0179928Y0073549D01*
X0187694Y0065695D02*
X0187694Y0039711D01*
X0201867Y0039711D01*
X0201867Y0065695D01*
X0187694Y0065695D01*
X0197428Y0066856D02*
X0197428Y0073549D01*
X0209633Y0073549D01*
X0209633Y0066856D01*
X0197428Y0066856D01*
X0177133Y0051049D02*
X0177133Y0044356D01*
X0164928Y0044356D01*
X0164928Y0051049D01*
X0177133Y0051049D01*
X0171286Y0053441D02*
X0165774Y0053441D01*
X0165774Y0064465D01*
X0171286Y0064465D01*
X0171286Y0053441D01*
X0191030Y0023453D02*
X0191030Y0009453D01*
X0131030Y0009453D01*
X0131030Y0023453D01*
X0191030Y0023453D01*
X0191030Y0010203D02*
X0191030Y0001453D01*
X0223658Y0001886D02*
X0223658Y0034366D01*
X0223658Y0048539D02*
X0223658Y0064287D01*
X0270312Y0064287D01*
X0270312Y0064288D02*
X0270358Y0064286D01*
X0270404Y0064281D01*
X0270450Y0064272D01*
X0270495Y0064259D01*
X0270538Y0064243D01*
X0270580Y0064224D01*
X0270621Y0064201D01*
X0270659Y0064175D01*
X0270696Y0064146D01*
X0270730Y0064115D01*
X0270761Y0064081D01*
X0270790Y0064044D01*
X0270816Y0064006D01*
X0270839Y0063965D01*
X0270858Y0063923D01*
X0270874Y0063880D01*
X0270887Y0063835D01*
X0270896Y0063789D01*
X0270901Y0063743D01*
X0270903Y0063697D01*
X0270902Y0063697D02*
X0270902Y0048539D01*
X0270902Y0034366D02*
X0270902Y0001295D01*
X0224249Y0001295D01*
X0224203Y0001297D01*
X0224157Y0001302D01*
X0224111Y0001311D01*
X0224066Y0001324D01*
X0224023Y0001340D01*
X0223981Y0001359D01*
X0223940Y0001382D01*
X0223902Y0001408D01*
X0223865Y0001437D01*
X0223831Y0001468D01*
X0223800Y0001502D01*
X0223771Y0001539D01*
X0223745Y0001577D01*
X0223722Y0001618D01*
X0223703Y0001660D01*
X0223687Y0001703D01*
X0223674Y0001748D01*
X0223665Y0001794D01*
X0223660Y0001840D01*
X0223658Y0001886D01*
X0285280Y0043953D02*
X0285280Y0083953D01*
X0299280Y0083953D01*
X0299280Y0043953D01*
X0285280Y0043953D01*
X0298530Y0043953D02*
X0308530Y0043953D01*
X0308530Y0083953D02*
X0298530Y0083953D01*
X0294633Y0095606D02*
X0294633Y0102299D01*
X0282428Y0102299D01*
X0282428Y0095606D01*
X0294633Y0095606D01*
X0294633Y0104356D02*
X0294633Y0111049D01*
X0282428Y0111049D01*
X0282428Y0104356D01*
X0294633Y0104356D01*
X0294633Y0113106D02*
X0294633Y0119799D01*
X0282428Y0119799D01*
X0282428Y0113106D01*
X0294633Y0113106D01*
X0294633Y0121856D02*
X0282428Y0121856D01*
X0282428Y0128549D01*
X0294633Y0128549D01*
X0294633Y0121856D01*
X0280883Y0133106D02*
X0280883Y0139799D01*
X0268678Y0139799D01*
X0268678Y0133106D01*
X0280883Y0133106D01*
X0268117Y0132781D02*
X0253944Y0132781D01*
X0253944Y0092624D01*
X0268117Y0092624D01*
X0268117Y0132781D01*
X0254931Y0130026D02*
X0254933Y0130109D01*
X0254939Y0130193D01*
X0254949Y0130276D01*
X0254962Y0130358D01*
X0254980Y0130440D01*
X0255002Y0130520D01*
X0255027Y0130600D01*
X0255056Y0130678D01*
X0255088Y0130755D01*
X0255125Y0130831D01*
X0255164Y0130904D01*
X0255208Y0130975D01*
X0255254Y0131045D01*
X0255304Y0131112D01*
X0255357Y0131177D01*
X0255412Y0131239D01*
X0255471Y0131298D01*
X0255533Y0131355D01*
X0255597Y0131408D01*
X0255663Y0131459D01*
X0255732Y0131506D01*
X0255803Y0131550D01*
X0255876Y0131591D01*
X0255951Y0131628D01*
X0256027Y0131661D01*
X0256105Y0131691D01*
X0256185Y0131717D01*
X0256265Y0131740D01*
X0256346Y0131758D01*
X0256429Y0131773D01*
X0256511Y0131784D01*
X0256595Y0131791D01*
X0256678Y0131794D01*
X0256762Y0131793D01*
X0256845Y0131788D01*
X0256928Y0131779D01*
X0257011Y0131766D01*
X0257092Y0131750D01*
X0257173Y0131729D01*
X0257253Y0131705D01*
X0257332Y0131677D01*
X0257409Y0131645D01*
X0257485Y0131610D01*
X0257559Y0131571D01*
X0257631Y0131529D01*
X0257701Y0131483D01*
X0257768Y0131434D01*
X0257834Y0131382D01*
X0257896Y0131327D01*
X0257957Y0131269D01*
X0258014Y0131208D01*
X0258068Y0131145D01*
X0258119Y0131079D01*
X0258168Y0131010D01*
X0258212Y0130940D01*
X0258254Y0130867D01*
X0258292Y0130793D01*
X0258326Y0130717D01*
X0258357Y0130639D01*
X0258384Y0130560D01*
X0258408Y0130480D01*
X0258427Y0130399D01*
X0258443Y0130317D01*
X0258455Y0130234D01*
X0258463Y0130151D01*
X0258467Y0130068D01*
X0258467Y0129984D01*
X0258463Y0129901D01*
X0258455Y0129818D01*
X0258443Y0129735D01*
X0258427Y0129653D01*
X0258408Y0129572D01*
X0258384Y0129492D01*
X0258357Y0129413D01*
X0258326Y0129335D01*
X0258292Y0129259D01*
X0258254Y0129185D01*
X0258212Y0129112D01*
X0258168Y0129042D01*
X0258119Y0128973D01*
X0258068Y0128907D01*
X0258014Y0128844D01*
X0257957Y0128783D01*
X0257896Y0128725D01*
X0257834Y0128670D01*
X0257768Y0128618D01*
X0257701Y0128569D01*
X0257631Y0128523D01*
X0257559Y0128481D01*
X0257485Y0128442D01*
X0257409Y0128407D01*
X0257332Y0128375D01*
X0257253Y0128347D01*
X0257173Y0128323D01*
X0257092Y0128302D01*
X0257011Y0128286D01*
X0256928Y0128273D01*
X0256845Y0128264D01*
X0256762Y0128259D01*
X0256678Y0128258D01*
X0256595Y0128261D01*
X0256511Y0128268D01*
X0256429Y0128279D01*
X0256346Y0128294D01*
X0256265Y0128312D01*
X0256185Y0128335D01*
X0256105Y0128361D01*
X0256027Y0128391D01*
X0255951Y0128424D01*
X0255876Y0128461D01*
X0255803Y0128502D01*
X0255732Y0128546D01*
X0255663Y0128593D01*
X0255597Y0128644D01*
X0255533Y0128697D01*
X0255471Y0128754D01*
X0255412Y0128813D01*
X0255357Y0128875D01*
X0255304Y0128940D01*
X0255254Y0129007D01*
X0255208Y0129077D01*
X0255164Y0129148D01*
X0255125Y0129221D01*
X0255088Y0129297D01*
X0255056Y0129374D01*
X0255027Y0129452D01*
X0255002Y0129532D01*
X0254980Y0129612D01*
X0254962Y0129694D01*
X0254949Y0129776D01*
X0254939Y0129859D01*
X0254933Y0129943D01*
X0254931Y0130026D01*
X0235883Y0130606D02*
X0235883Y0137299D01*
X0223678Y0137299D01*
X0223678Y0130606D01*
X0235883Y0130606D01*
X0235883Y0128549D02*
X0235883Y0121856D01*
X0223678Y0121856D01*
X0223678Y0128549D01*
X0235883Y0128549D01*
X0235883Y0119799D02*
X0235883Y0113106D01*
X0223678Y0113106D01*
X0223678Y0119799D01*
X0235883Y0119799D01*
X0235883Y0111049D02*
X0235883Y0104356D01*
X0223678Y0104356D01*
X0223678Y0111049D01*
X0235883Y0111049D01*
X0238934Y0103805D02*
X0245627Y0103805D01*
X0245627Y0091600D01*
X0238934Y0091600D01*
X0238934Y0103805D01*
X0213383Y0106856D02*
X0213383Y0113549D01*
X0201178Y0113549D01*
X0201178Y0106856D01*
X0213383Y0106856D01*
X0213383Y0121856D02*
X0201178Y0121856D01*
X0201178Y0128549D01*
X0213383Y0128549D01*
X0213383Y0121856D01*
X0204633Y0133106D02*
X0204633Y0139799D01*
X0192428Y0139799D01*
X0192428Y0133106D01*
X0204633Y0133106D01*
X0178681Y0130026D02*
X0178683Y0130109D01*
X0178689Y0130193D01*
X0178699Y0130276D01*
X0178712Y0130358D01*
X0178730Y0130440D01*
X0178752Y0130520D01*
X0178777Y0130600D01*
X0178806Y0130678D01*
X0178838Y0130755D01*
X0178875Y0130831D01*
X0178914Y0130904D01*
X0178958Y0130975D01*
X0179004Y0131045D01*
X0179054Y0131112D01*
X0179107Y0131177D01*
X0179162Y0131239D01*
X0179221Y0131298D01*
X0179283Y0131355D01*
X0179347Y0131408D01*
X0179413Y0131459D01*
X0179482Y0131506D01*
X0179553Y0131550D01*
X0179626Y0131591D01*
X0179701Y0131628D01*
X0179777Y0131661D01*
X0179855Y0131691D01*
X0179935Y0131717D01*
X0180015Y0131740D01*
X0180096Y0131758D01*
X0180179Y0131773D01*
X0180261Y0131784D01*
X0180345Y0131791D01*
X0180428Y0131794D01*
X0180512Y0131793D01*
X0180595Y0131788D01*
X0180678Y0131779D01*
X0180761Y0131766D01*
X0180842Y0131750D01*
X0180923Y0131729D01*
X0181003Y0131705D01*
X0181082Y0131677D01*
X0181159Y0131645D01*
X0181235Y0131610D01*
X0181309Y0131571D01*
X0181381Y0131529D01*
X0181451Y0131483D01*
X0181518Y0131434D01*
X0181584Y0131382D01*
X0181646Y0131327D01*
X0181707Y0131269D01*
X0181764Y0131208D01*
X0181818Y0131145D01*
X0181869Y0131079D01*
X0181918Y0131010D01*
X0181962Y0130940D01*
X0182004Y0130867D01*
X0182042Y0130793D01*
X0182076Y0130717D01*
X0182107Y0130639D01*
X0182134Y0130560D01*
X0182158Y0130480D01*
X0182177Y0130399D01*
X0182193Y0130317D01*
X0182205Y0130234D01*
X0182213Y0130151D01*
X0182217Y0130068D01*
X0182217Y0129984D01*
X0182213Y0129901D01*
X0182205Y0129818D01*
X0182193Y0129735D01*
X0182177Y0129653D01*
X0182158Y0129572D01*
X0182134Y0129492D01*
X0182107Y0129413D01*
X0182076Y0129335D01*
X0182042Y0129259D01*
X0182004Y0129185D01*
X0181962Y0129112D01*
X0181918Y0129042D01*
X0181869Y0128973D01*
X0181818Y0128907D01*
X0181764Y0128844D01*
X0181707Y0128783D01*
X0181646Y0128725D01*
X0181584Y0128670D01*
X0181518Y0128618D01*
X0181451Y0128569D01*
X0181381Y0128523D01*
X0181309Y0128481D01*
X0181235Y0128442D01*
X0181159Y0128407D01*
X0181082Y0128375D01*
X0181003Y0128347D01*
X0180923Y0128323D01*
X0180842Y0128302D01*
X0180761Y0128286D01*
X0180678Y0128273D01*
X0180595Y0128264D01*
X0180512Y0128259D01*
X0180428Y0128258D01*
X0180345Y0128261D01*
X0180261Y0128268D01*
X0180179Y0128279D01*
X0180096Y0128294D01*
X0180015Y0128312D01*
X0179935Y0128335D01*
X0179855Y0128361D01*
X0179777Y0128391D01*
X0179701Y0128424D01*
X0179626Y0128461D01*
X0179553Y0128502D01*
X0179482Y0128546D01*
X0179413Y0128593D01*
X0179347Y0128644D01*
X0179283Y0128697D01*
X0179221Y0128754D01*
X0179162Y0128813D01*
X0179107Y0128875D01*
X0179054Y0128940D01*
X0179004Y0129007D01*
X0178958Y0129077D01*
X0178914Y0129148D01*
X0178875Y0129221D01*
X0178838Y0129297D01*
X0178806Y0129374D01*
X0178777Y0129452D01*
X0178752Y0129532D01*
X0178730Y0129612D01*
X0178712Y0129694D01*
X0178699Y0129776D01*
X0178689Y0129859D01*
X0178683Y0129943D01*
X0178681Y0130026D01*
X0168383Y0129356D02*
X0168383Y0136049D01*
X0156178Y0136049D01*
X0156178Y0129356D01*
X0168383Y0129356D01*
X0168383Y0127299D02*
X0156178Y0127299D01*
X0156178Y0120606D01*
X0168383Y0120606D01*
X0168383Y0127299D01*
X0151877Y0157850D02*
X0145184Y0157850D01*
X0145184Y0170055D01*
X0151877Y0170055D01*
X0151877Y0157850D01*
X0143127Y0157850D02*
X0136434Y0157850D01*
X0136434Y0170055D01*
X0143127Y0170055D01*
X0143127Y0157850D01*
X0133127Y0157850D02*
X0133127Y0170055D01*
X0126434Y0170055D01*
X0126434Y0157850D01*
X0133127Y0157850D01*
X0133127Y0153805D02*
X0126434Y0153805D01*
X0126434Y0141600D01*
X0133127Y0141600D01*
X0133127Y0153805D01*
X0124229Y0146866D02*
X0105331Y0146866D01*
X0105331Y0161039D01*
X0124229Y0161039D01*
X0124229Y0146866D01*
X0122133Y0136049D02*
X0109928Y0136049D01*
X0109928Y0129356D01*
X0122133Y0129356D01*
X0122133Y0136049D01*
X0108383Y0136049D02*
X0108383Y0129356D01*
X0096178Y0129356D01*
X0096178Y0136049D01*
X0108383Y0136049D01*
X0103127Y0139100D02*
X0096434Y0139100D01*
X0096434Y0151305D01*
X0103127Y0151305D01*
X0103127Y0139100D01*
X0105933Y0149228D02*
X0105935Y0149312D01*
X0105941Y0149395D01*
X0105951Y0149479D01*
X0105965Y0149561D01*
X0105983Y0149643D01*
X0106004Y0149724D01*
X0106030Y0149804D01*
X0106059Y0149882D01*
X0106092Y0149960D01*
X0106129Y0150035D01*
X0106169Y0150108D01*
X0106213Y0150180D01*
X0106260Y0150249D01*
X0106310Y0150317D01*
X0106363Y0150381D01*
X0106420Y0150443D01*
X0106479Y0150502D01*
X0106541Y0150559D01*
X0106605Y0150612D01*
X0106673Y0150662D01*
X0106742Y0150709D01*
X0106813Y0150753D01*
X0106887Y0150793D01*
X0106962Y0150830D01*
X0107040Y0150863D01*
X0107118Y0150892D01*
X0107198Y0150918D01*
X0107279Y0150939D01*
X0107361Y0150957D01*
X0107443Y0150971D01*
X0107527Y0150981D01*
X0107610Y0150987D01*
X0107694Y0150989D01*
X0107778Y0150987D01*
X0107861Y0150981D01*
X0107945Y0150971D01*
X0108027Y0150957D01*
X0108109Y0150939D01*
X0108190Y0150918D01*
X0108270Y0150892D01*
X0108348Y0150863D01*
X0108426Y0150830D01*
X0108501Y0150793D01*
X0108574Y0150753D01*
X0108646Y0150709D01*
X0108715Y0150662D01*
X0108783Y0150612D01*
X0108847Y0150559D01*
X0108909Y0150502D01*
X0108968Y0150443D01*
X0109025Y0150381D01*
X0109078Y0150317D01*
X0109128Y0150249D01*
X0109175Y0150180D01*
X0109219Y0150109D01*
X0109259Y0150035D01*
X0109296Y0149960D01*
X0109329Y0149882D01*
X0109358Y0149804D01*
X0109384Y0149724D01*
X0109405Y0149643D01*
X0109423Y0149561D01*
X0109437Y0149479D01*
X0109447Y0149395D01*
X0109453Y0149312D01*
X0109455Y0149228D01*
X0109453Y0149144D01*
X0109447Y0149061D01*
X0109437Y0148977D01*
X0109423Y0148895D01*
X0109405Y0148813D01*
X0109384Y0148732D01*
X0109358Y0148652D01*
X0109329Y0148574D01*
X0109296Y0148496D01*
X0109259Y0148421D01*
X0109219Y0148348D01*
X0109175Y0148276D01*
X0109128Y0148207D01*
X0109078Y0148139D01*
X0109025Y0148075D01*
X0108968Y0148013D01*
X0108909Y0147954D01*
X0108847Y0147897D01*
X0108783Y0147844D01*
X0108715Y0147794D01*
X0108646Y0147747D01*
X0108575Y0147703D01*
X0108501Y0147663D01*
X0108426Y0147626D01*
X0108348Y0147593D01*
X0108270Y0147564D01*
X0108190Y0147538D01*
X0108109Y0147517D01*
X0108027Y0147499D01*
X0107945Y0147485D01*
X0107861Y0147475D01*
X0107778Y0147469D01*
X0107694Y0147467D01*
X0107610Y0147469D01*
X0107527Y0147475D01*
X0107443Y0147485D01*
X0107361Y0147499D01*
X0107279Y0147517D01*
X0107198Y0147538D01*
X0107118Y0147564D01*
X0107040Y0147593D01*
X0106962Y0147626D01*
X0106887Y0147663D01*
X0106814Y0147703D01*
X0106742Y0147747D01*
X0106673Y0147794D01*
X0106605Y0147844D01*
X0106541Y0147897D01*
X0106479Y0147954D01*
X0106420Y0148013D01*
X0106363Y0148075D01*
X0106310Y0148139D01*
X0106260Y0148207D01*
X0106213Y0148276D01*
X0106169Y0148347D01*
X0106129Y0148421D01*
X0106092Y0148496D01*
X0106059Y0148574D01*
X0106030Y0148652D01*
X0106004Y0148732D01*
X0105983Y0148813D01*
X0105965Y0148895D01*
X0105951Y0148977D01*
X0105941Y0149061D01*
X0105935Y0149144D01*
X0105933Y0149228D01*
X0103127Y0156600D02*
X0096434Y0156600D01*
X0096434Y0168805D01*
X0103127Y0168805D01*
X0103127Y0156600D01*
X0094377Y0156600D02*
X0094377Y0168805D01*
X0087684Y0168805D01*
X0087684Y0156600D01*
X0094377Y0156600D01*
X0080883Y0154799D02*
X0080883Y0148106D01*
X0068678Y0148106D01*
X0068678Y0154799D01*
X0080883Y0154799D01*
X0080883Y0146049D02*
X0080883Y0139356D01*
X0068678Y0139356D01*
X0068678Y0146049D01*
X0080883Y0146049D01*
X0081178Y0123549D02*
X0081178Y0116856D01*
X0093383Y0116856D01*
X0093383Y0123549D01*
X0081178Y0123549D01*
X0083432Y0115252D02*
X0108629Y0115252D01*
X0108629Y0102654D01*
X0083432Y0102654D01*
X0083432Y0115252D01*
X0098678Y0116856D02*
X0110883Y0116856D01*
X0110883Y0123549D01*
X0098678Y0123549D01*
X0098678Y0116856D01*
X0070627Y0097555D02*
X0063934Y0097555D01*
X0063934Y0085350D01*
X0070627Y0085350D01*
X0070627Y0097555D01*
X0055530Y0095203D02*
X0041530Y0095203D01*
X0041530Y0135203D01*
X0055530Y0135203D01*
X0055530Y0165203D01*
X0041530Y0165203D01*
X0041530Y0135203D01*
X0055530Y0135203D01*
X0055530Y0095203D01*
X0042280Y0095203D02*
X0032280Y0095203D01*
X0032280Y0085203D02*
X0041030Y0085203D01*
X0042280Y0135203D02*
X0032280Y0135203D01*
X0032280Y0165203D02*
X0043530Y0165203D01*
X0041530Y0165203D02*
X0055530Y0165203D01*
X0055530Y0205203D01*
X0041530Y0205203D01*
X0041530Y0165203D01*
X0073018Y0196197D02*
X0073018Y0201709D01*
X0084042Y0201709D01*
X0084042Y0196197D01*
X0073018Y0196197D01*
X0072428Y0206856D02*
X0084633Y0206856D01*
X0084633Y0213549D01*
X0072428Y0213549D01*
X0072428Y0206856D01*
X0097428Y0206856D02*
X0109633Y0206856D01*
X0109633Y0213549D01*
X0097428Y0213549D01*
X0097428Y0206856D01*
X0097428Y0204799D02*
X0097428Y0198106D01*
X0109633Y0198106D01*
X0109633Y0204799D01*
X0097428Y0204799D01*
X0097428Y0196049D02*
X0097428Y0189356D01*
X0109633Y0189356D01*
X0109633Y0196049D01*
X0097428Y0196049D01*
X0096434Y0185055D02*
X0096434Y0172850D01*
X0103127Y0172850D01*
X0103127Y0185055D01*
X0096434Y0185055D01*
X0086286Y0183215D02*
X0086286Y0172191D01*
X0080774Y0172191D01*
X0080774Y0183215D01*
X0086286Y0183215D01*
X0113678Y0198106D02*
X0125883Y0198106D01*
X0125883Y0204799D01*
X0113678Y0204799D01*
X0113678Y0198106D01*
X0118678Y0192299D02*
X0118678Y0185606D01*
X0130883Y0185606D01*
X0130883Y0192299D01*
X0118678Y0192299D01*
X0114662Y0184858D02*
X0114662Y0173047D01*
X0124898Y0173047D01*
X0124898Y0184858D01*
X0114662Y0184858D01*
X0115211Y0182890D02*
X0115213Y0182965D01*
X0115219Y0183040D01*
X0115229Y0183114D01*
X0115243Y0183188D01*
X0115260Y0183261D01*
X0115282Y0183332D01*
X0115307Y0183403D01*
X0115336Y0183472D01*
X0115368Y0183540D01*
X0115404Y0183605D01*
X0115444Y0183669D01*
X0115487Y0183731D01*
X0115533Y0183790D01*
X0115582Y0183847D01*
X0115634Y0183901D01*
X0115688Y0183952D01*
X0115746Y0184000D01*
X0115805Y0184045D01*
X0115868Y0184087D01*
X0115932Y0184126D01*
X0115998Y0184161D01*
X0116066Y0184193D01*
X0116136Y0184221D01*
X0116206Y0184245D01*
X0116279Y0184266D01*
X0116352Y0184282D01*
X0116426Y0184295D01*
X0116500Y0184304D01*
X0116575Y0184309D01*
X0116650Y0184310D01*
X0116725Y0184307D01*
X0116799Y0184300D01*
X0116873Y0184289D01*
X0116947Y0184274D01*
X0117020Y0184256D01*
X0117091Y0184233D01*
X0117161Y0184207D01*
X0117230Y0184177D01*
X0117297Y0184144D01*
X0117363Y0184107D01*
X0117426Y0184067D01*
X0117487Y0184023D01*
X0117545Y0183976D01*
X0117601Y0183927D01*
X0117655Y0183874D01*
X0117705Y0183819D01*
X0117753Y0183761D01*
X0117797Y0183700D01*
X0117838Y0183638D01*
X0117876Y0183573D01*
X0117910Y0183506D01*
X0117941Y0183438D01*
X0117968Y0183368D01*
X0117992Y0183297D01*
X0118011Y0183224D01*
X0118027Y0183151D01*
X0118039Y0183077D01*
X0118047Y0183002D01*
X0118051Y0182927D01*
X0118051Y0182853D01*
X0118047Y0182778D01*
X0118039Y0182703D01*
X0118027Y0182629D01*
X0118011Y0182556D01*
X0117992Y0182483D01*
X0117968Y0182412D01*
X0117941Y0182342D01*
X0117910Y0182274D01*
X0117876Y0182207D01*
X0117838Y0182142D01*
X0117797Y0182080D01*
X0117753Y0182019D01*
X0117705Y0181961D01*
X0117655Y0181906D01*
X0117601Y0181853D01*
X0117545Y0181804D01*
X0117487Y0181757D01*
X0117426Y0181713D01*
X0117363Y0181673D01*
X0117297Y0181636D01*
X0117230Y0181603D01*
X0117161Y0181573D01*
X0117091Y0181547D01*
X0117020Y0181524D01*
X0116947Y0181506D01*
X0116873Y0181491D01*
X0116799Y0181480D01*
X0116725Y0181473D01*
X0116650Y0181470D01*
X0116575Y0181471D01*
X0116500Y0181476D01*
X0116426Y0181485D01*
X0116352Y0181498D01*
X0116279Y0181514D01*
X0116206Y0181535D01*
X0116136Y0181559D01*
X0116066Y0181587D01*
X0115998Y0181619D01*
X0115932Y0181654D01*
X0115868Y0181693D01*
X0115805Y0181735D01*
X0115746Y0181780D01*
X0115688Y0181828D01*
X0115634Y0181879D01*
X0115582Y0181933D01*
X0115533Y0181990D01*
X0115487Y0182049D01*
X0115444Y0182111D01*
X0115404Y0182175D01*
X0115368Y0182240D01*
X0115336Y0182308D01*
X0115307Y0182377D01*
X0115282Y0182448D01*
X0115260Y0182519D01*
X0115243Y0182592D01*
X0115229Y0182666D01*
X0115219Y0182740D01*
X0115213Y0182815D01*
X0115211Y0182890D01*
X0136434Y0186305D02*
X0136434Y0174100D01*
X0143127Y0174100D01*
X0143127Y0186305D01*
X0136434Y0186305D01*
X0145184Y0186305D02*
X0145184Y0174100D01*
X0151877Y0174100D01*
X0151877Y0186305D01*
X0145184Y0186305D01*
X0162684Y0190350D02*
X0162684Y0202555D01*
X0169377Y0202555D01*
X0169377Y0190350D01*
X0162684Y0190350D01*
X0172625Y0189760D02*
X0172625Y0198815D01*
X0176168Y0198815D01*
X0176168Y0203146D01*
X0180892Y0203146D01*
X0180892Y0198815D01*
X0184436Y0198815D01*
X0184436Y0189760D01*
X0180105Y0189760D01*
X0180105Y0194091D01*
X0176955Y0194091D01*
X0176955Y0189760D01*
X0172625Y0189760D01*
X0186434Y0190350D02*
X0186434Y0202555D01*
X0193127Y0202555D01*
X0193127Y0190350D01*
X0186434Y0190350D01*
X0195125Y0189760D02*
X0195125Y0198815D01*
X0198668Y0198815D01*
X0198668Y0203146D01*
X0203392Y0203146D01*
X0203392Y0198815D01*
X0206936Y0198815D01*
X0206936Y0189760D01*
X0202605Y0189760D01*
X0202605Y0194091D01*
X0199455Y0194091D01*
X0199455Y0189760D01*
X0195125Y0189760D01*
X0200479Y0176039D02*
X0181581Y0176039D01*
X0181581Y0161866D01*
X0200479Y0161866D01*
X0200479Y0176039D01*
X0202684Y0175055D02*
X0209377Y0175055D01*
X0209377Y0162850D01*
X0202684Y0162850D01*
X0202684Y0175055D01*
X0182183Y0164228D02*
X0182185Y0164312D01*
X0182191Y0164395D01*
X0182201Y0164479D01*
X0182215Y0164561D01*
X0182233Y0164643D01*
X0182254Y0164724D01*
X0182280Y0164804D01*
X0182309Y0164882D01*
X0182342Y0164960D01*
X0182379Y0165035D01*
X0182419Y0165108D01*
X0182463Y0165180D01*
X0182510Y0165249D01*
X0182560Y0165317D01*
X0182613Y0165381D01*
X0182670Y0165443D01*
X0182729Y0165502D01*
X0182791Y0165559D01*
X0182855Y0165612D01*
X0182923Y0165662D01*
X0182992Y0165709D01*
X0183063Y0165753D01*
X0183137Y0165793D01*
X0183212Y0165830D01*
X0183290Y0165863D01*
X0183368Y0165892D01*
X0183448Y0165918D01*
X0183529Y0165939D01*
X0183611Y0165957D01*
X0183693Y0165971D01*
X0183777Y0165981D01*
X0183860Y0165987D01*
X0183944Y0165989D01*
X0184028Y0165987D01*
X0184111Y0165981D01*
X0184195Y0165971D01*
X0184277Y0165957D01*
X0184359Y0165939D01*
X0184440Y0165918D01*
X0184520Y0165892D01*
X0184598Y0165863D01*
X0184676Y0165830D01*
X0184751Y0165793D01*
X0184824Y0165753D01*
X0184896Y0165709D01*
X0184965Y0165662D01*
X0185033Y0165612D01*
X0185097Y0165559D01*
X0185159Y0165502D01*
X0185218Y0165443D01*
X0185275Y0165381D01*
X0185328Y0165317D01*
X0185378Y0165249D01*
X0185425Y0165180D01*
X0185469Y0165109D01*
X0185509Y0165035D01*
X0185546Y0164960D01*
X0185579Y0164882D01*
X0185608Y0164804D01*
X0185634Y0164724D01*
X0185655Y0164643D01*
X0185673Y0164561D01*
X0185687Y0164479D01*
X0185697Y0164395D01*
X0185703Y0164312D01*
X0185705Y0164228D01*
X0185703Y0164144D01*
X0185697Y0164061D01*
X0185687Y0163977D01*
X0185673Y0163895D01*
X0185655Y0163813D01*
X0185634Y0163732D01*
X0185608Y0163652D01*
X0185579Y0163574D01*
X0185546Y0163496D01*
X0185509Y0163421D01*
X0185469Y0163348D01*
X0185425Y0163276D01*
X0185378Y0163207D01*
X0185328Y0163139D01*
X0185275Y0163075D01*
X0185218Y0163013D01*
X0185159Y0162954D01*
X0185097Y0162897D01*
X0185033Y0162844D01*
X0184965Y0162794D01*
X0184896Y0162747D01*
X0184825Y0162703D01*
X0184751Y0162663D01*
X0184676Y0162626D01*
X0184598Y0162593D01*
X0184520Y0162564D01*
X0184440Y0162538D01*
X0184359Y0162517D01*
X0184277Y0162499D01*
X0184195Y0162485D01*
X0184111Y0162475D01*
X0184028Y0162469D01*
X0183944Y0162467D01*
X0183860Y0162469D01*
X0183777Y0162475D01*
X0183693Y0162485D01*
X0183611Y0162499D01*
X0183529Y0162517D01*
X0183448Y0162538D01*
X0183368Y0162564D01*
X0183290Y0162593D01*
X0183212Y0162626D01*
X0183137Y0162663D01*
X0183064Y0162703D01*
X0182992Y0162747D01*
X0182923Y0162794D01*
X0182855Y0162844D01*
X0182791Y0162897D01*
X0182729Y0162954D01*
X0182670Y0163013D01*
X0182613Y0163075D01*
X0182560Y0163139D01*
X0182510Y0163207D01*
X0182463Y0163276D01*
X0182419Y0163347D01*
X0182379Y0163421D01*
X0182342Y0163496D01*
X0182309Y0163574D01*
X0182280Y0163652D01*
X0182254Y0163732D01*
X0182233Y0163813D01*
X0182215Y0163895D01*
X0182201Y0163977D01*
X0182191Y0164061D01*
X0182185Y0164144D01*
X0182183Y0164228D01*
X0220184Y0190350D02*
X0226877Y0190350D01*
X0226877Y0202555D01*
X0220184Y0202555D01*
X0220184Y0190350D01*
X0230125Y0189760D02*
X0230125Y0198815D01*
X0233668Y0198815D01*
X0233668Y0203146D01*
X0238392Y0203146D01*
X0238392Y0198815D01*
X0241936Y0198815D01*
X0241936Y0189760D01*
X0237605Y0189760D01*
X0237605Y0194091D01*
X0234455Y0194091D01*
X0234455Y0189760D01*
X0230125Y0189760D01*
X0243934Y0190350D02*
X0250627Y0190350D01*
X0250627Y0202555D01*
X0243934Y0202555D01*
X0243934Y0190350D01*
X0252625Y0189760D02*
X0252625Y0198815D01*
X0256168Y0198815D01*
X0256168Y0203146D01*
X0260892Y0203146D01*
X0260892Y0198815D01*
X0264436Y0198815D01*
X0264436Y0189760D01*
X0260105Y0189760D01*
X0260105Y0194091D01*
X0256955Y0194091D01*
X0256955Y0189760D01*
X0252625Y0189760D01*
X0257979Y0176039D02*
X0239081Y0176039D01*
X0239081Y0161866D01*
X0257979Y0161866D01*
X0257979Y0176039D01*
X0260184Y0175055D02*
X0266877Y0175055D01*
X0266877Y0162850D01*
X0260184Y0162850D01*
X0260184Y0175055D01*
X0271768Y0176610D02*
X0282792Y0176610D01*
X0282792Y0196295D01*
X0271768Y0196295D01*
X0271768Y0176610D01*
X0285280Y0166453D02*
X0285280Y0206453D01*
X0299280Y0206453D01*
X0299280Y0166453D01*
X0285280Y0166453D01*
X0298530Y0166453D02*
X0308530Y0166453D01*
X0308530Y0206453D02*
X0298530Y0206453D01*
X0262280Y0206453D02*
X0262280Y0215203D01*
X0262280Y0214453D02*
X0182280Y0214453D01*
X0182280Y0228453D01*
X0262280Y0228453D01*
X0262280Y0214453D01*
X0262280Y0206453D02*
X0242280Y0206453D01*
X0242280Y0213953D01*
X0242280Y0206453D02*
X0222280Y0206453D01*
X0222280Y0213953D01*
X0222280Y0206453D02*
X0202280Y0206453D01*
X0202280Y0213953D01*
X0202280Y0206453D02*
X0182280Y0206453D01*
X0182280Y0215203D01*
X0182280Y0227703D02*
X0182280Y0237703D01*
X0125883Y0228549D02*
X0125883Y0221856D01*
X0113678Y0221856D01*
X0113678Y0228549D01*
X0125883Y0228549D01*
X0125883Y0213549D02*
X0113678Y0213549D01*
X0113678Y0206856D01*
X0125883Y0206856D01*
X0125883Y0213549D01*
X0109633Y0221856D02*
X0109633Y0228549D01*
X0097428Y0228549D01*
X0097428Y0221856D01*
X0109633Y0221856D01*
X0042280Y0205203D02*
X0032280Y0205203D01*
X0239683Y0164228D02*
X0239685Y0164312D01*
X0239691Y0164395D01*
X0239701Y0164479D01*
X0239715Y0164561D01*
X0239733Y0164643D01*
X0239754Y0164724D01*
X0239780Y0164804D01*
X0239809Y0164882D01*
X0239842Y0164960D01*
X0239879Y0165035D01*
X0239919Y0165108D01*
X0239963Y0165180D01*
X0240010Y0165249D01*
X0240060Y0165317D01*
X0240113Y0165381D01*
X0240170Y0165443D01*
X0240229Y0165502D01*
X0240291Y0165559D01*
X0240355Y0165612D01*
X0240423Y0165662D01*
X0240492Y0165709D01*
X0240563Y0165753D01*
X0240637Y0165793D01*
X0240712Y0165830D01*
X0240790Y0165863D01*
X0240868Y0165892D01*
X0240948Y0165918D01*
X0241029Y0165939D01*
X0241111Y0165957D01*
X0241193Y0165971D01*
X0241277Y0165981D01*
X0241360Y0165987D01*
X0241444Y0165989D01*
X0241528Y0165987D01*
X0241611Y0165981D01*
X0241695Y0165971D01*
X0241777Y0165957D01*
X0241859Y0165939D01*
X0241940Y0165918D01*
X0242020Y0165892D01*
X0242098Y0165863D01*
X0242176Y0165830D01*
X0242251Y0165793D01*
X0242324Y0165753D01*
X0242396Y0165709D01*
X0242465Y0165662D01*
X0242533Y0165612D01*
X0242597Y0165559D01*
X0242659Y0165502D01*
X0242718Y0165443D01*
X0242775Y0165381D01*
X0242828Y0165317D01*
X0242878Y0165249D01*
X0242925Y0165180D01*
X0242969Y0165109D01*
X0243009Y0165035D01*
X0243046Y0164960D01*
X0243079Y0164882D01*
X0243108Y0164804D01*
X0243134Y0164724D01*
X0243155Y0164643D01*
X0243173Y0164561D01*
X0243187Y0164479D01*
X0243197Y0164395D01*
X0243203Y0164312D01*
X0243205Y0164228D01*
X0243203Y0164144D01*
X0243197Y0164061D01*
X0243187Y0163977D01*
X0243173Y0163895D01*
X0243155Y0163813D01*
X0243134Y0163732D01*
X0243108Y0163652D01*
X0243079Y0163574D01*
X0243046Y0163496D01*
X0243009Y0163421D01*
X0242969Y0163348D01*
X0242925Y0163276D01*
X0242878Y0163207D01*
X0242828Y0163139D01*
X0242775Y0163075D01*
X0242718Y0163013D01*
X0242659Y0162954D01*
X0242597Y0162897D01*
X0242533Y0162844D01*
X0242465Y0162794D01*
X0242396Y0162747D01*
X0242325Y0162703D01*
X0242251Y0162663D01*
X0242176Y0162626D01*
X0242098Y0162593D01*
X0242020Y0162564D01*
X0241940Y0162538D01*
X0241859Y0162517D01*
X0241777Y0162499D01*
X0241695Y0162485D01*
X0241611Y0162475D01*
X0241528Y0162469D01*
X0241444Y0162467D01*
X0241360Y0162469D01*
X0241277Y0162475D01*
X0241193Y0162485D01*
X0241111Y0162499D01*
X0241029Y0162517D01*
X0240948Y0162538D01*
X0240868Y0162564D01*
X0240790Y0162593D01*
X0240712Y0162626D01*
X0240637Y0162663D01*
X0240564Y0162703D01*
X0240492Y0162747D01*
X0240423Y0162794D01*
X0240355Y0162844D01*
X0240291Y0162897D01*
X0240229Y0162954D01*
X0240170Y0163013D01*
X0240113Y0163075D01*
X0240060Y0163139D01*
X0240010Y0163207D01*
X0239963Y0163276D01*
X0239919Y0163347D01*
X0239879Y0163421D01*
X0239842Y0163496D01*
X0239809Y0163574D01*
X0239780Y0163652D01*
X0239754Y0163732D01*
X0239733Y0163813D01*
X0239715Y0163895D01*
X0239701Y0163977D01*
X0239691Y0164061D01*
X0239685Y0164144D01*
X0239683Y0164228D01*
X0262280Y0227703D02*
X0262280Y0237703D01*
X0131030Y0010203D02*
X0131030Y0001453D01*
X0071030Y0001453D02*
X0071030Y0010203D01*
D12*
X0166859Y0054419D02*
X0166859Y0055533D01*
X0166859Y0054976D02*
X0170199Y0054976D01*
X0170199Y0054419D02*
X0170199Y0055533D01*
X0169642Y0056836D02*
X0170199Y0057393D01*
X0170199Y0058506D01*
X0169642Y0059063D01*
X0169642Y0060461D02*
X0170199Y0061018D01*
X0170199Y0062131D01*
X0169642Y0062688D01*
X0169085Y0062688D01*
X0168529Y0062131D01*
X0168529Y0061574D01*
X0168529Y0062131D02*
X0167972Y0062688D01*
X0167415Y0062688D01*
X0166859Y0062131D01*
X0166859Y0061018D01*
X0167415Y0060461D01*
X0167415Y0059063D02*
X0166859Y0058506D01*
X0166859Y0057393D01*
X0167415Y0056836D01*
X0169642Y0056836D01*
X0085199Y0171357D02*
X0085199Y0172470D01*
X0085199Y0171913D02*
X0081859Y0171913D01*
X0081859Y0171357D02*
X0081859Y0172470D01*
X0082415Y0173773D02*
X0084642Y0173773D01*
X0085199Y0174330D01*
X0085199Y0175443D01*
X0084642Y0176000D01*
X0085199Y0177399D02*
X0085199Y0179625D01*
X0085199Y0178512D02*
X0081859Y0178512D01*
X0082972Y0177399D01*
X0082415Y0176000D02*
X0081859Y0175443D01*
X0081859Y0174330D01*
X0082415Y0173773D01*
X0082972Y0181024D02*
X0081859Y0182137D01*
X0085199Y0182137D01*
X0085199Y0181024D02*
X0085199Y0183250D01*
X0080039Y0197284D02*
X0080039Y0197841D01*
X0082265Y0200067D01*
X0082265Y0200624D01*
X0080039Y0200624D01*
X0078640Y0200067D02*
X0078083Y0200624D01*
X0076970Y0200624D01*
X0076413Y0200067D01*
X0076413Y0197841D01*
X0076970Y0197284D01*
X0078083Y0197284D01*
X0078640Y0197841D01*
X0075110Y0197284D02*
X0073997Y0197284D01*
X0074553Y0197284D02*
X0074553Y0200624D01*
X0073997Y0200624D02*
X0075110Y0200624D01*
X0118896Y0182131D02*
X0118896Y0181018D01*
X0119453Y0180461D01*
X0120010Y0180461D01*
X0120566Y0181018D01*
X0120566Y0182688D01*
X0119453Y0182688D02*
X0118896Y0182131D01*
X0119453Y0182688D02*
X0121679Y0182688D01*
X0122236Y0182131D01*
X0122236Y0181018D01*
X0121679Y0180461D01*
X0121679Y0179063D02*
X0122236Y0178506D01*
X0122236Y0177393D01*
X0121679Y0176836D01*
X0119453Y0176836D01*
X0118896Y0177393D01*
X0118896Y0178506D01*
X0119453Y0179063D01*
X0118896Y0175533D02*
X0118896Y0174419D01*
X0118896Y0174976D02*
X0122236Y0174976D01*
X0122236Y0174419D02*
X0122236Y0175533D01*
X0181021Y0198659D02*
X0184130Y0198659D01*
X0203521Y0198659D02*
X0206630Y0198659D01*
X0238521Y0198659D02*
X0241630Y0198659D01*
X0261021Y0198659D02*
X0264130Y0198659D01*
M02*
