%
M48
M72
T01C0.0236
T02C0.0394
T03C0.0512
T04C0.0906
T05C0.1654
%
T01
X1875Y4750
X1875Y5750
X2875Y6750
X1875Y7750
X1875Y8750
X3500Y10250
X4125Y11125
X5250Y12000
X3875Y13250
X2875Y13750
X1875Y14750
X1875Y15750
X2875Y16750
X3250Y16125
X3250Y15000
X4625Y16000
X5000Y15625
X5875Y15000
X6125Y14000
X9500Y12875
X9875Y13625
X11125Y13250
X10500Y12250
X10500Y11125
X11375Y10750
X12125Y10500
X12125Y11000
X13375Y11250
X13500Y9375
X13000Y9250
X11250Y7750
X11125Y6125
X12875Y5500
X12375Y3875
X13375Y3500
X14375Y2250
X13375Y1750
X12375Y1750
X11375Y1750
X10375Y1750
X9375Y1750
X8375Y2750
X7250Y3500
X7250Y4000
X5375Y2125
X6375Y1750
X7375Y1750
X10000Y3750
X13750Y7250
X15125Y5500
X16000Y4625
X16500Y3500
X16500Y2500
X16500Y1500
X17875Y5500
X21125Y6625
X21750Y8875
X20750Y10875
X21125Y11375
X21125Y11875
X22250Y14000
X20750Y15625
X19500Y14750
X19125Y15125
X17625Y15125
X17250Y14750
X17750Y14375
X17625Y13500
X17750Y13000
X17500Y11750
X17000Y11500
X17125Y10250
X18500Y8625
X15625Y13375
X14625Y14750
X13750Y15875
X12250Y15875
X10500Y15000
X10125Y17250
X10000Y18500
X10375Y19375
X11125Y20375
X11750Y21750
X13000Y20375
X13500Y21250
X14500Y21750
X15875Y20750
X15125Y20375
X16250Y18375
X17625Y17750
X18875Y17750
X20750Y17000
X22250Y18625
X21625Y19625
X20000Y21750
X18125Y19625
X17250Y21750
X12250Y18500
X7875Y18500
X7250Y18000
X7250Y17500
X6125Y19125
X6000Y20375
X2875Y20750
X1875Y19750
X1875Y18750
X1875Y17750
X4000Y17250
X1875Y12750
X1875Y11750
X1875Y10750
X5125Y9875
X5625Y9875
X7125Y9875
X8500Y8125
X9250Y8500
X10625Y9875
X4125Y4250
X3125Y4250
X17500Y15750
X23625Y15750
X24500Y14250
X24625Y12875
X24625Y11375
X24625Y9000
X25375Y5250
X24750Y21000
X8750Y23500
X6000Y23750
T02
X6000Y24250
X7000Y24250
X1375Y20750
X1375Y19750
X1375Y18750
X1375Y17750
X1375Y16750
X1375Y15750
X1375Y14750
X1375Y13750
X1375Y12750
X1375Y11750
X1375Y10750
X1375Y8750
X1375Y7750
X1375Y6750
X1375Y5750
X1375Y4750
X5375Y1250
X6375Y1250
X7375Y1250
X8375Y1250
X9375Y1250
X10375Y1250
X11375Y1250
X12375Y1250
X13375Y1250
X16000Y1500
X16000Y2500
X16000Y3500
X16000Y500
X20133Y5067
X20133Y5854
X21117Y5854
X21117Y5067
X11125Y14000
X5625Y13125
T03
X11740Y22441
X13118Y22441
X14496Y22441
X15874Y22441
X17251Y22441
X18629Y22441
X20007Y22441
X21385Y22441
T04
X22995Y4000
X18255Y4000
T05
X1969Y1969
X1969Y23622
X25591Y23622
X25591Y1969
M30
